<?xml version="1.0" encoding="utf-8"?>
<!-- Generator: Adobe Illustrator 17.1.0, SVG Export Plug-In . SVG Version: 6.00 Build 0)  -->
<!DOCTYPE svg PUBLIC "-//W3C//DTD SVG 1.1//EN" "http://www.w3.org/Graphics/SVG/1.1/DTD/svg11.dtd">
<svg version="1.1" xmlns="http://www.w3.org/2000/svg" xmlns:xlink="http://www.w3.org/1999/xlink" x="0px" y="0px"
	 viewBox="0 0 89.6 422.2" enable-background="new 0 0 89.6 422.2" xml:space="preserve">
<g id="Layer_3">
</g>
<g id="Layer_1">
</g>
<g id="Layer_2">
</g>
<g id="Layer_4" display="none">
</g>
<g id="Layer_5">
</g>
<g id="Layer_6">
	<g>
		<g>
			<g>
				<g>
					<polygon fill="#67C6E8" points="89.1,41 65.6,44.1 26.4,49.2 2.7,52.2 7.8,44.9 1,38.9 87.4,28 82.9,35.3 					"/>
					<polygon fill="#A3BFC3" stroke="#FFFFFF" stroke-miterlimit="10" points="40.7,0.6 44.2,2.6 47.7,0.7 50.7,3.5 54.6,2.6 
						56.7,6 60.7,6.1 62,10 65.8,11.1 66.2,15.1 69.6,17.1 68.9,21.1 71.8,24 70.2,27.6 72.3,31.1 69.8,34.2 70.7,38.1 67.2,40.6 
						67.5,44.6 64.2,46.2 63.6,50.1 59.7,50.7 58.1,54.3 54.2,53.9 51.6,57 47.9,55.6 44.7,57.9 41.4,55.6 37.7,57.1 35,53.9 
						31.1,54.4 29.3,50.7 25.3,50.2 24.4,46.1 20.7,44.6 20.9,40.5 17.6,38 18.8,34.1 16.2,30.9 18.3,27.4 16.6,23.6 19.5,20.8 
						18.8,16.7 22.3,14.7 22.5,10.6 26.4,9.6 27.7,5.7 31.7,5.7 33.9,2.3 37.8,3.3 					"/>
					<path fill="none" stroke="#FFFFFF" d="M65.8,26.2C64.2,14,53.3,5.3,41.4,6.7c-12,1.4-20.5,12.6-18.9,24.9
						c1.6,12.3,12.7,21,24.7,19.4C59.1,49.5,67.4,38.4,65.8,26.2z"/>
					<path fill="#D3E3E4" d="M64.6,26.4C63.1,14.9,52.8,6.6,41.6,8C30.2,9.3,22.2,19.8,23.8,31.5c1.5,11.6,12,19.8,23.3,18.3
						C58.2,48.3,66.1,37.8,64.6,26.4z"/>
					<g>
						<polygon fill="#71CAF2" points="79.5,40.3 10.8,49.1 8.8,34.5 77.7,25.9 						"/>
						<polygon fill="#51A8BF" points="11.5,49.1 29.9,46.7 29.9,49.2 						"/>
						<polygon fill="#51A8BF" points="79.5,40.3 63.7,42.3 64.3,44.7 						"/>
					</g>
					<g>
						<path fill="#FFFFFF" d="M14.6,37.4l1.5-0.2c0.2,0,0.4,0,0.6,0c0.2,0,0.4,0.1,0.5,0.1c0.2,0.1,0.3,0.2,0.4,0.3
							c0.1,0.2,0.2,0.3,0.2,0.6c0,0.2,0,0.4,0,0.6c-0.1,0.2-0.1,0.3-0.3,0.4c-0.1,0.1-0.3,0.2-0.4,0.3c-0.2,0.1-0.4,0.1-0.6,0.1
							l-0.7,0.1l0.2,1.6l-0.9,0.1L14.6,37.4z M15.7,39l0.6-0.1c0.1,0,0.2,0,0.2-0.1c0.1,0,0.1-0.1,0.2-0.1c0.1,0,0.1-0.1,0.1-0.2
							c0-0.1,0-0.2,0-0.2c0-0.1,0-0.2-0.1-0.2c-0.1-0.1-0.1-0.1-0.2-0.1c-0.1,0-0.2,0-0.3,0c-0.1,0-0.2,0-0.3,0L15.6,38L15.7,39z"/>
						<path fill="#FFFFFF" d="M18.3,36.9l0.9-0.1l0.4,3.3l1.7-0.2l0.1,0.8L18.8,41L18.3,36.9z"/>
						<path fill="#FFFFFF" d="M22.6,36.4l0.7-0.1l2.3,3.9l-1,0.1l-0.5-0.8l-1.6,0.2l-0.2,0.9l-1,0.1L22.6,36.4z M23.1,37.5l-0.3,1.3
							l1-0.1L23.1,37.5z"/>
						<path fill="#FFFFFF" d="M25.9,36.8l-1.2,0.1l-0.1-0.8l3.2-0.4l0.1,0.8l-1.2,0.1l0.4,3.3l-0.9,0.1L25.9,36.8z"/>
						<path fill="#FFFFFF" d="M28.3,35.6l0.9-0.1l0.5,4.1l-0.9,0.1L28.3,35.6z"/>
						<path fill="#FFFFFF" d="M30,35.4l1.2-0.2l2.1,2.6l0,0l-0.4-2.9l0.9-0.1l0.5,4.1l-1.2,0.1l-2.1-2.7l0,0l0.4,2.9l-0.9,0.1
							L30,35.4z"/>
						<path fill="#FFFFFF" d="M38.4,36.9c0,0.2,0,0.5,0,0.7c0,0.2-0.1,0.4-0.3,0.6c-0.1,0.2-0.3,0.3-0.5,0.4
							c-0.2,0.1-0.4,0.2-0.7,0.2c-0.3,0-0.5,0-0.8,0c-0.2-0.1-0.4-0.2-0.6-0.3c-0.2-0.1-0.3-0.3-0.4-0.5c-0.1-0.2-0.2-0.4-0.2-0.7
							l-0.3-2.5l0.9-0.1l0.3,2.5c0,0.1,0.1,0.2,0.1,0.3c0.1,0.1,0.1,0.2,0.2,0.3c0.1,0.1,0.2,0.1,0.3,0.2c0.1,0,0.2,0,0.3,0
							c0.1,0,0.2-0.1,0.3-0.1c0.1-0.1,0.2-0.1,0.2-0.2c0.1-0.1,0.1-0.2,0.1-0.3c0-0.1,0-0.2,0-0.4l-0.3-2.5l0.9-0.1L38.4,36.9z"/>
						<path fill="#FFFFFF" d="M38.8,34.3l1.3-0.2l1.3,2.6l0,0l0.6-2.8l1.3-0.2l0.5,4.1L43,38l-0.4-3.2l0,0L42,38.1l-0.7,0.1l-1.4-3
							l0,0l0.4,3.2l-0.9,0.1L38.8,34.3z"/>
						<path fill="#FFFFFF" d="M48.6,34.2c-0.1-0.1-0.2-0.2-0.4-0.2c-0.1,0-0.3-0.1-0.4,0c-0.2,0-0.3,0.1-0.4,0.2
							c-0.1,0.1-0.2,0.2-0.3,0.3c-0.1,0.1-0.2,0.3-0.2,0.5c0,0.2,0,0.3,0,0.5c0,0.2,0.1,0.4,0.2,0.5c0.1,0.2,0.2,0.3,0.3,0.4
							c0.1,0.1,0.2,0.2,0.4,0.2c0.1,0,0.3,0.1,0.5,0c0.2,0,0.3-0.1,0.5-0.2c0.1-0.1,0.2-0.2,0.3-0.4l0.8,0.5
							c-0.1,0.3-0.3,0.5-0.6,0.6c-0.2,0.1-0.5,0.2-0.8,0.3c-0.3,0-0.6,0-0.9,0c-0.3-0.1-0.5-0.2-0.7-0.3c-0.2-0.2-0.4-0.4-0.5-0.6
							c-0.1-0.3-0.2-0.5-0.3-0.9c0-0.3,0-0.6,0-0.9c0.1-0.3,0.2-0.5,0.4-0.7c0.2-0.2,0.4-0.4,0.6-0.5c0.3-0.1,0.5-0.2,0.8-0.3
							c0.1,0,0.2,0,0.4,0c0.1,0,0.3,0,0.4,0.1c0.1,0,0.2,0.1,0.4,0.1c0.1,0.1,0.2,0.1,0.3,0.2L48.6,34.2z"/>
						<path fill="#FFFFFF" d="M49.8,32.9l2.7-0.3l0.1,0.8l-1.8,0.2l0.1,0.8l1.7-0.2l0.1,0.8L51,35.3l0.1,0.8l1.9-0.2l0.1,0.8
							L50.3,37L49.8,32.9z"/>
						<path fill="#FFFFFF" d="M53.3,32.5l1.5-0.2c0.2,0,0.4,0,0.6,0c0.2,0,0.4,0.1,0.5,0.1c0.1,0.1,0.3,0.2,0.4,0.3
							c0.1,0.1,0.2,0.3,0.2,0.6c0,0.3,0,0.5-0.1,0.8c-0.1,0.2-0.3,0.4-0.6,0.5l1.2,1.6L56,36.3l-1-1.5l-0.4,0.1l0.2,1.6l-0.9,0.1
							L53.3,32.5z M54.4,34.1l0.5-0.1c0.1,0,0.2,0,0.2,0c0.1,0,0.2,0,0.2-0.1c0.1,0,0.1-0.1,0.2-0.2c0-0.1,0.1-0.2,0-0.3
							c0-0.1,0-0.2-0.1-0.2c0-0.1-0.1-0.1-0.2-0.1c-0.1,0-0.1,0-0.2,0c-0.1,0-0.2,0-0.2,0l-0.6,0.1L54.4,34.1z"/>
						<path fill="#FFFFFF" d="M57.7,32.7l-1.1,0.1l-0.1-0.8l3.1-0.4l0.1,0.8l-1.1,0.1l0.4,3.3L58.1,36L57.7,32.7z"/>
						<path fill="#FFFFFF" d="M60.1,31.6l0.9-0.1l0.5,4.1l-0.9,0.1L60.1,31.6z"/>
						<path fill="#FFFFFF" d="M61.8,31.4l2.7-0.3l0.1,0.8l-1.8,0.2l0.1,0.8l1.7-0.2l0.1,0.8L63,33.8l0.2,1.6l-0.9,0.1L61.8,31.4z"/>
						<path fill="#FFFFFF" d="M65,31l0.9-0.1l0.5,4.1l-0.9,0.1L65,31z"/>
						<path fill="#FFFFFF" d="M66.7,30.8l2.7-0.3l0.1,0.8l-1.8,0.2l0.1,0.8l1.7-0.2l0.1,0.8l-1.7,0.2l0.1,0.8l1.9-0.2l0.1,0.8
							l-2.8,0.4L66.7,30.8z"/>
						<path fill="#FFFFFF" d="M70.2,30.4l1.3-0.2c0.3,0,0.6,0,0.9,0c0.3,0,0.6,0.1,0.8,0.3c0.2,0.1,0.4,0.3,0.6,0.6
							c0.2,0.2,0.3,0.6,0.3,0.9c0,0.3,0,0.6-0.1,0.9c-0.1,0.3-0.2,0.5-0.4,0.7c-0.2,0.2-0.4,0.4-0.7,0.5c-0.3,0.1-0.5,0.2-0.8,0.2
							l-1.4,0.2L70.2,30.4z M71.5,33.5l0.5-0.1c0.2,0,0.4-0.1,0.6-0.1c0.2-0.1,0.3-0.2,0.4-0.3c0.1-0.1,0.2-0.3,0.2-0.4
							c0.1-0.2,0.1-0.4,0-0.6c0-0.2-0.1-0.4-0.2-0.5c-0.1-0.1-0.2-0.2-0.3-0.3c-0.1-0.1-0.3-0.1-0.5-0.2c-0.2,0-0.3,0-0.5,0
							l-0.5,0.1L71.5,33.5z"/>
					</g>
					<g>
						<path fill="#FFFFFF" d="M37.5,40.2l0.9-0.1c0.1,0,0.2,0,0.4,0c0.1,0,0.2,0,0.3,0.1c0.1,0,0.2,0.1,0.2,0.2
							c0.1,0.1,0.1,0.2,0.1,0.3c0,0.2,0,0.3-0.1,0.4s-0.2,0.2-0.3,0.3l0,0c0.1,0,0.2,0,0.3,0c0.1,0,0.2,0.1,0.2,0.1
							c0.1,0.1,0.1,0.1,0.2,0.2c0,0.1,0.1,0.2,0.1,0.3c0,0.2,0,0.3,0,0.4c-0.1,0.1-0.1,0.2-0.2,0.3c-0.1,0.1-0.2,0.1-0.3,0.2
							C39,43,38.9,43,38.8,43l-0.9,0.1L37.5,40.2z M38,41.4l0.5-0.1c0.1,0,0.2,0,0.2,0c0.1,0,0.1-0.1,0.2-0.1c0.1,0,0.1-0.1,0.1-0.2
							c0-0.1,0-0.2,0-0.3c0-0.1,0-0.2-0.1-0.2c0-0.1-0.1-0.1-0.2-0.1c-0.1,0-0.1,0-0.2,0c-0.1,0-0.2,0-0.2,0l-0.5,0.1L38,41.4z
							 M38.2,42.8l0.6-0.1c0.1,0,0.2,0,0.2-0.1c0.1,0,0.2-0.1,0.2-0.1s0.1-0.1,0.1-0.2c0-0.1,0-0.2,0-0.2c0-0.1,0-0.2-0.1-0.3
							c0-0.1-0.1-0.1-0.2-0.1c-0.1,0-0.1-0.1-0.2-0.1c-0.1,0-0.2,0-0.3,0l-0.6,0.1L38.2,42.8z"/>
						<path fill="#FFFFFF" d="M42.5,41.4c0,0.2,0,0.3,0,0.5c0,0.2-0.1,0.3-0.1,0.4c-0.1,0.1-0.2,0.2-0.3,0.3
							c-0.1,0.1-0.3,0.1-0.5,0.2c-0.2,0-0.4,0-0.5,0c-0.1,0-0.3-0.1-0.4-0.2c-0.1-0.1-0.2-0.2-0.2-0.4c-0.1-0.1-0.1-0.3-0.1-0.5
							l-0.2-1.8l0.3,0l0.2,1.8c0,0.1,0,0.2,0.1,0.3c0,0.1,0.1,0.2,0.2,0.3c0.1,0.1,0.2,0.1,0.3,0.2c0.1,0,0.2,0,0.4,0
							c0.1,0,0.3-0.1,0.4-0.1c0.1-0.1,0.2-0.1,0.2-0.2c0-0.1,0.1-0.2,0.1-0.3c0-0.1,0-0.2,0-0.4l-0.2-1.8l0.3,0L42.5,41.4z"/>
						<path fill="#FFFFFF" d="M43.9,41.1l-1.3-1.6l0.4-0.1l1,1.2l0.7-1.5l0.4-0.1L44.2,41l0.2,1.3l-0.3,0L43.9,41.1z"/>
						<path fill="#FFFFFF" d="M45.4,39.2l1.8-0.2l0,0.3l-1.5,0.2l0.1,0.9l1.4-0.2l0,0.3L46,40.7l0.1,1.1l1.6-0.2l0,0.3l-1.9,0.2
							L45.4,39.2z"/>
						<path fill="#FFFFFF" d="M47.8,38.9l0.7-0.1c0.1,0,0.3,0,0.4,0c0.1,0,0.3,0,0.4,0.1c0.1,0,0.2,0.1,0.3,0.2
							c0.1,0.1,0.1,0.2,0.2,0.4c0,0.2,0,0.4-0.1,0.6c-0.1,0.2-0.3,0.3-0.5,0.3l1,1.3l-0.4,0.1l-1-1.2l-0.4,0.1l0.2,1.3l-0.3,0
							L47.8,38.9z M48.4,40.1l0.3,0c0.1,0,0.2,0,0.3,0c0.1,0,0.2,0,0.3-0.1c0.1,0,0.1-0.1,0.2-0.2c0-0.1,0.1-0.2,0-0.3
							c0-0.1,0-0.2-0.1-0.2c0-0.1-0.1-0.1-0.2-0.1c-0.1,0-0.1,0-0.2,0c-0.1,0-0.2,0-0.3,0l-0.5,0.1L48.4,40.1z"/>
					</g>
					
						<rect x="19.4" y="43" transform="matrix(0.9919 -0.1273 0.1273 0.9919 -5.3028 3.7785)" fill="#FFFFFF" width="15" height="0.7"/>
					
						<rect x="54.9" y="38.5" transform="matrix(0.9919 -0.1273 0.1273 0.9919 -4.4375 8.2433)" fill="#FFFFFF" width="14.8" height="0.7"/>
					<g>
						<g>
							<polygon fill="#A3BFC3" points="32.4,18.4 32.4,18.4 30.9,15.8 30.1,15.8 30.6,19.6 31.1,19.5 30.7,16.4 30.7,16.4 
								32.4,19.4 32.7,19.3 33.5,16.1 33.5,16.1 33.9,19.2 34.4,19.1 33.9,15.4 33.2,15.5 							"/>
							<path fill="#A3BFC3" d="M35.9,16.3c-0.7,0.1-1.2,0.7-1.1,1.5c0.1,0.7,0.7,1.3,1.4,1.2c0.5-0.1,0.8-0.3,1-0.6l-0.4-0.2
								c-0.1,0.2-0.3,0.4-0.6,0.5c-0.4,0.1-0.9-0.2-0.9-0.6l2-0.2l0-0.2C37.1,16.9,36.7,16.2,35.9,16.3z M35.2,17.5
								c0-0.3,0.2-0.8,0.7-0.8c0.5-0.1,0.7,0.2,0.8,0.6L35.2,17.5z"/>
							<path fill="#A3BFC3" d="M39.5,16.3L39.5,16.3C39.3,16.1,39,16,38.6,16c-0.7,0.1-1.2,0.7-1.1,1.5c0.1,0.7,0.6,1.2,1.4,1.1
								c0.3,0,0.8-0.1,0.8-0.1l0,0l0.5-0.1l-0.5-3.7l-0.5,0.1L39.5,16.3z M38.9,18.2c-0.5,0.1-0.8-0.3-0.9-0.8
								c-0.1-0.5,0.2-0.9,0.7-1c0.5-0.1,0.8,0.3,0.9,0.8C39.7,17.7,39.4,18.1,38.9,18.2z"/>
							<polygon fill="#A3BFC3" points="40.9,18.3 41.3,18.3 41,15.8 40.5,15.8 							"/>
							<path fill="#A3BFC3" d="M42.6,15.5c-0.3,0-0.7,0.2-0.9,0.5l0.3,0.3c0.2-0.2,0.3-0.3,0.7-0.4c0.4,0,0.6,0.2,0.6,0.5l0,0.1
								l-0.3,0c-0.7,0.1-1.3,0.4-1.2,1c0.1,0.5,0.5,0.6,0.9,0.6c0.4,0,0.8-0.1,0.8-0.1l0,0l0.4,0c0,0,0-0.3-0.1-0.5l-0.2-1.3
								C43.6,15.8,43.3,15.4,42.6,15.5z M43.3,17c0,0.3-0.1,0.7-0.6,0.8c-0.3,0-0.5-0.1-0.6-0.3c-0.1-0.4,0.5-0.5,0.9-0.6l0.2,0
								L43.3,17z"/>
							<path fill="#A3BFC3" d="M49.4,14.7c-0.3,0-0.7,0.2-0.9,0.5l0.3,0.3c0.2-0.2,0.3-0.3,0.7-0.4c0.4,0,0.6,0.2,0.6,0.5l0,0.1
								l-0.3,0c-0.7,0.1-1.3,0.4-1.2,1c0.1,0.5,0.5,0.6,0.9,0.6c0.4,0,0.8-0.1,0.8-0.1l0,0l0.4,0c0,0,0-0.3-0.1-0.5l-0.2-1.3
								C50.5,15,50.1,14.6,49.4,14.7z M50.2,16.1c0,0.3-0.1,0.7-0.6,0.8c-0.3,0-0.5-0.1-0.6-0.3c-0.1-0.4,0.5-0.5,0.9-0.6l0.2,0
								L50.2,16.1z"/>
							<polygon fill="#A3BFC3" points="46.3,16.7 46.3,16.7 44.8,14.1 44.1,14.2 44.5,17.9 45,17.8 44.6,14.8 44.6,14.8 46.3,17.7 
								46.6,17.6 47.4,14.4 47.4,14.4 47.8,17.5 48.3,17.4 47.8,13.7 47.1,13.8 							"/>
							<path fill="#A3BFC3" d="M52,16l-0.1-1.1l0.7-0.1l-0.1-0.4l-0.7,0.1l-0.1-0.7l-0.5,0.1l0.1,0.7l-0.5,0.1l0.1,0.4l0.5-0.1
								l0.2,1.3c0.1,0.4,0.1,0.8,0.8,0.8c0.1,0,0.3-0.1,0.4-0.1l-0.1-0.4c-0.1,0.1-0.2,0.1-0.3,0.1C52.1,16.6,52,16.3,52,16z"/>
							<path fill="#A3BFC3" d="M54.2,14.1c-0.4,0-0.8,0.1-0.8,0.1l-0.2-1.2l-0.5,0.1l0.5,3.7l0.5-0.1l-0.2-1.3
								c-0.1-0.6,0.2-0.9,0.6-0.9c0.3,0,0.6,0.1,0.6,0.6l0.2,1.5l0.5-0.1L55.2,15C55.1,14.3,54.6,14.1,54.2,14.1z"/>
							<polygon fill="#A3BFC3" points="40.5,15.4 40.9,15.4 40.9,14.9 40.4,15 							"/>
						</g>
					</g>
					<g>
						<path fill="#A3BFC3" d="M30.9,24c-0.1-0.4,0-0.8,0.1-1.2c0.1-0.4,0.3-0.7,0.5-1c0.2-0.3,0.5-0.5,0.9-0.7
							c0.3-0.2,0.7-0.3,1.1-0.3c0.4-0.1,0.8,0,1.2,0.1c0.4,0.1,0.7,0.2,1,0.5c0.3,0.2,0.6,0.5,0.8,0.8c0.2,0.3,0.3,0.7,0.4,1.2
							c0.1,0.4,0,0.8-0.1,1.2c-0.1,0.4-0.3,0.7-0.5,1c-0.2,0.3-0.5,0.5-0.9,0.7c-0.3,0.2-0.7,0.3-1.1,0.3c-0.4,0.1-0.8,0-1.2-0.1
							c-0.4-0.1-0.7-0.2-1-0.5c-0.3-0.2-0.6-0.5-0.8-0.8C31.1,24.8,31,24.4,30.9,24z M32.6,23.8c0.1,0.4,0.2,0.7,0.5,1
							c0.3,0.2,0.6,0.3,1,0.3c0.4-0.1,0.7-0.2,0.9-0.5c0.2-0.3,0.3-0.6,0.2-1.1c-0.1-0.4-0.2-0.7-0.5-1c-0.3-0.2-0.6-0.3-1-0.3
							c-0.4,0.1-0.7,0.2-0.9,0.5C32.6,23,32.5,23.4,32.6,23.8z"/>
						<path fill="#A3BFC3" d="M37.7,20.4l1.5-0.2l0.1,0.7l0,0c0.1-0.1,0.1-0.2,0.2-0.3c0.1-0.1,0.2-0.2,0.3-0.3
							c0.1-0.1,0.3-0.2,0.4-0.3c0.2-0.1,0.3-0.1,0.5-0.1c0.4,0,0.8,0,1.1,0.1c0.3,0.1,0.6,0.3,0.9,0.5c0.3,0.2,0.5,0.5,0.7,0.8
							c0.2,0.3,0.3,0.7,0.3,1.1c0.1,0.4,0,0.8,0,1.1c-0.1,0.4-0.2,0.7-0.4,1c-0.2,0.3-0.4,0.5-0.7,0.7c-0.3,0.2-0.6,0.3-1,0.4
							c-0.3,0-0.7,0-1,0c-0.3-0.1-0.6-0.2-0.8-0.5l0,0l0.4,3.2l-1.7,0.2L37.7,20.4z M39.6,22.9c0.1,0.4,0.2,0.7,0.5,1
							c0.3,0.2,0.6,0.3,1,0.3c0.4-0.1,0.7-0.2,0.9-0.5c0.2-0.3,0.3-0.6,0.2-1c-0.1-0.4-0.2-0.7-0.5-1c-0.3-0.2-0.6-0.3-1-0.3
							c-0.4,0.1-0.7,0.2-0.9,0.5C39.6,22.2,39.5,22.5,39.6,22.9z"/>
						<path fill="#A3BFC3" d="M50.1,23.5c-0.2,0.4-0.5,0.7-0.9,0.9c-0.4,0.2-0.8,0.4-1.2,0.4c-0.4,0.1-0.8,0-1.2-0.1
							c-0.4-0.1-0.7-0.2-1-0.5c-0.3-0.2-0.6-0.5-0.8-0.8c-0.2-0.3-0.3-0.7-0.4-1.2c-0.1-0.4,0-0.8,0.1-1.2c0.1-0.4,0.3-0.7,0.5-1
							c0.2-0.3,0.5-0.5,0.9-0.7c0.3-0.2,0.7-0.3,1.1-0.3c0.4,0,0.7,0,1.1,0.1c0.3,0.1,0.6,0.3,0.9,0.5c0.2,0.2,0.5,0.5,0.6,0.8
							c0.2,0.3,0.3,0.7,0.3,1.2l0.1,0.5l-3.8,0.5c0.1,0.3,0.3,0.6,0.5,0.7c0.2,0.2,0.5,0.2,0.9,0.2c0.3,0,0.5-0.1,0.7-0.3
							c0.2-0.1,0.3-0.3,0.4-0.5L50.1,23.5z M48.4,21.2c0-0.3-0.2-0.5-0.4-0.7c-0.2-0.2-0.5-0.3-0.8-0.2c-0.2,0-0.3,0.1-0.5,0.1
							c-0.1,0.1-0.2,0.2-0.3,0.3c-0.1,0.1-0.1,0.2-0.2,0.4c0,0.1-0.1,0.3,0,0.4L48.4,21.2z"/>
						<path fill="#A3BFC3" d="M50.8,18.8l1.6-0.2l0.1,0.7l0,0c0-0.1,0.1-0.2,0.2-0.3c0.1-0.1,0.2-0.2,0.3-0.3
							c0.1-0.1,0.3-0.2,0.4-0.3c0.2-0.1,0.3-0.1,0.5-0.1c0.4-0.1,0.8,0,1,0.1c0.3,0.1,0.5,0.3,0.7,0.5c0.2,0.2,0.3,0.5,0.4,0.8
							c0.1,0.3,0.2,0.6,0.2,1l0.4,3L55,23.8l-0.4-2.7c0-0.2,0-0.3-0.1-0.5c0-0.2-0.1-0.3-0.2-0.5c-0.1-0.1-0.2-0.2-0.3-0.3
							c-0.1-0.1-0.3-0.1-0.5-0.1c-0.2,0-0.4,0.1-0.5,0.2c-0.1,0.1-0.2,0.2-0.3,0.4c-0.1,0.1-0.1,0.3-0.1,0.5c0,0.2,0,0.3,0,0.5
							l0.4,2.7l-1.6,0.2L50.8,18.8z"/>
					</g>
				</g>
			</g>
			<g>
				<g>
					<g>
						<polygon fill="#67C6E8" points="89.6,113.4 66.1,116.5 26.9,121.7 3.4,124.8 8.5,117.4 1.8,111.4 88.1,100.2 83.5,107.6 
													"/>
						<polygon fill="#E2A726" stroke="#FFFFFF" stroke-miterlimit="10" points="42,73.4 45.5,75.3 49.1,73.5 52,76.2 55.8,75.3 
							58,78.7 61.9,78.8 63.1,82.6 66.9,83.7 67.2,87.8 70.6,89.8 69.8,93.8 72.6,96.6 71,100.2 73,103.7 70.5,106.8 71.6,110.7 
							68.5,113.1 68.6,117.2 65,118.7 64.2,122.7 60.3,123.3 58.5,126.9 54.6,126.5 52,129.6 48.3,128.2 45,130.5 41.8,128.2 
							38.1,129.7 35.5,126.6 31.5,127.1 29.8,123.4 25.9,122.8 25.1,118.8 21.4,117.3 21.6,113.2 18.4,110.8 19.6,106.9 17.1,103.7 
							19.3,100.2 17.7,96.4 20.6,93.6 19.9,89.6 23.4,87.5 23.8,83.5 27.7,82.4 29,78.6 33,78.5 35.2,75.1 39.1,76.1 						"/>
						<path fill="#F3D480" d="M65.4,99C64.1,87.5,54,79.3,42.8,80.7c-11.3,1.4-19.4,11.9-18.1,23.5c1.3,11.6,11.6,19.7,22.9,18.2
							C58.7,120.9,66.7,110.4,65.4,99z"/>
						<path fill="none" stroke="#FFFFFF" d="M66.6,98.8c-1.4-12.1-12.1-20.8-24-19.4c-12,1.5-20.6,12.6-19.2,24.9
							c1.4,12.3,12.3,20.9,24.3,19.3C59.6,122.1,68,111,66.6,98.8z"/>
						<g>
							<polygon fill="#71CAF2" points="80,112.6 11.9,121.6 10.3,107.6 78.4,98.8 							"/>
							<polygon fill="#51A8BF" points="12.2,121.6 30.5,119.2 30.4,121.7 							"/>
							<polygon fill="#51A8BF" points="80,112.6 64.2,114.7 64.8,117.1 							"/>
						</g>
						<g>
							<path fill="#FFFFFF" d="M24,112.4c-0.3,0.2-0.5,0.3-0.8,0.4c-0.3,0.1-0.6,0.2-0.9,0.2c-0.3,0-0.7,0-1,0
								c-0.3-0.1-0.6-0.2-0.8-0.4c-0.2-0.2-0.4-0.4-0.6-0.7c-0.1-0.3-0.2-0.6-0.3-0.9c0-0.4,0-0.7,0.1-1c0.1-0.3,0.2-0.6,0.4-0.8
								c0.2-0.2,0.4-0.4,0.7-0.6c0.3-0.1,0.6-0.2,0.9-0.3c0.3,0,0.7,0,1,0c0.3,0,0.6,0.2,0.8,0.3l-0.6,0.8c-0.1-0.1-0.3-0.2-0.5-0.3
								c-0.2,0-0.4-0.1-0.6,0c-0.2,0-0.4,0.1-0.5,0.2c-0.2,0.1-0.3,0.2-0.4,0.3c-0.1,0.1-0.2,0.3-0.2,0.5c0,0.2-0.1,0.4,0,0.6
								c0,0.2,0.1,0.4,0.2,0.6c0.1,0.2,0.2,0.3,0.3,0.4c0.1,0.1,0.3,0.2,0.5,0.2c0.2,0,0.4,0.1,0.6,0c0.2,0,0.4-0.1,0.5-0.1
								c0.1-0.1,0.3-0.1,0.3-0.2l-0.1-0.7l-0.8,0.1l-0.1-0.9l1.7-0.2L24,112.4z"/>
							<path fill="#FFFFFF" d="M24.4,110.4c0-0.4,0-0.7,0.1-1c0.1-0.3,0.2-0.6,0.4-0.8c0.2-0.2,0.4-0.4,0.7-0.6
								c0.3-0.1,0.6-0.2,0.9-0.3c0.3,0,0.7,0,1,0c0.3,0.1,0.6,0.2,0.8,0.4c0.2,0.2,0.4,0.4,0.6,0.7c0.1,0.3,0.2,0.6,0.3,0.9
								c0,0.4,0,0.7-0.1,1c-0.1,0.3-0.2,0.6-0.4,0.8c-0.2,0.2-0.4,0.4-0.7,0.6c-0.3,0.1-0.6,0.2-0.9,0.3c-0.3,0-0.7,0-1,0
								c-0.3-0.1-0.6-0.2-0.8-0.4c-0.2-0.2-0.4-0.4-0.6-0.7C24.5,111.1,24.4,110.8,24.4,110.4z M25.3,110.3c0,0.2,0.1,0.4,0.2,0.6
								c0.1,0.2,0.2,0.3,0.3,0.4c0.1,0.1,0.3,0.2,0.5,0.2c0.2,0,0.4,0.1,0.6,0c0.2,0,0.4-0.1,0.5-0.2c0.2-0.1,0.3-0.2,0.4-0.3
								c0.1-0.1,0.2-0.3,0.2-0.5c0-0.2,0.1-0.4,0-0.6c0-0.2-0.1-0.4-0.2-0.6c-0.1-0.2-0.2-0.3-0.3-0.4c-0.1-0.1-0.3-0.2-0.5-0.2
								c-0.2,0-0.4-0.1-0.6,0c-0.2,0-0.4,0.1-0.5,0.2c-0.2,0.1-0.3,0.2-0.4,0.3c-0.1,0.1-0.2,0.3-0.2,0.5
								C25.3,109.9,25.3,110.1,25.3,110.3z"/>
							<path fill="#FFFFFF" d="M29.4,107.6l0.9-0.1l0.4,3.5l1.8-0.2l0.1,0.9l-2.7,0.4L29.4,107.6z"/>
							<path fill="#FFFFFF" d="M32.7,107.1l1.4-0.2c0.3,0,0.7,0,1,0c0.3,0,0.6,0.1,0.9,0.3c0.3,0.1,0.5,0.3,0.6,0.6
								c0.2,0.3,0.3,0.6,0.3,1c0,0.4,0,0.7-0.1,1c-0.1,0.3-0.3,0.5-0.5,0.7c-0.2,0.2-0.4,0.4-0.7,0.5c-0.3,0.1-0.6,0.2-0.9,0.3
								l-1.5,0.2L32.7,107.1z M34,110.5l0.5-0.1c0.2,0,0.4-0.1,0.6-0.1c0.2-0.1,0.3-0.2,0.5-0.3c0.1-0.1,0.2-0.3,0.3-0.5
								c0.1-0.2,0.1-0.4,0-0.6c0-0.2-0.1-0.4-0.2-0.5c-0.1-0.1-0.2-0.3-0.4-0.4c-0.1-0.1-0.3-0.1-0.5-0.2c-0.2,0-0.4,0-0.6,0
								l-0.6,0.1L34,110.5z"/>
							<path fill="#FFFFFF" d="M42,107.1c-0.1-0.1-0.2-0.2-0.4-0.2c-0.1,0-0.3-0.1-0.5,0c-0.2,0-0.3,0.1-0.5,0.2
								c-0.1,0.1-0.3,0.2-0.4,0.3c-0.1,0.1-0.2,0.3-0.2,0.5c0,0.2-0.1,0.4,0,0.6c0,0.2,0.1,0.4,0.2,0.6c0.1,0.2,0.2,0.3,0.3,0.4
								c0.1,0.1,0.3,0.2,0.4,0.2c0.2,0.1,0.3,0.1,0.5,0c0.2,0,0.4-0.1,0.5-0.2c0.1-0.1,0.2-0.2,0.3-0.4l0.9,0.5
								c-0.2,0.3-0.4,0.5-0.6,0.7c-0.3,0.2-0.5,0.3-0.8,0.3c-0.3,0-0.6,0-0.9,0c-0.3-0.1-0.6-0.2-0.8-0.4c-0.2-0.2-0.4-0.4-0.6-0.7
								c-0.1-0.3-0.2-0.6-0.3-0.9c0-0.3,0-0.7,0.1-1c0.1-0.3,0.2-0.6,0.4-0.8c0.2-0.2,0.4-0.4,0.7-0.6c0.3-0.1,0.6-0.2,0.9-0.3
								c0.1,0,0.2,0,0.4,0c0.1,0,0.3,0,0.4,0.1c0.1,0,0.3,0.1,0.4,0.2c0.1,0.1,0.2,0.2,0.3,0.3L42,107.1z"/>
							<path fill="#FFFFFF" d="M43.2,105.8l2.9-0.4l0.1,0.9l-2,0.3l0.1,0.8l1.9-0.2l0.1,0.9l-1.9,0.2l0.1,0.9l2.1-0.3l0.1,0.9
								l-3,0.4L43.2,105.8z"/>
							<path fill="#FFFFFF" d="M47,105.3l1.6-0.2c0.2,0,0.4,0,0.6,0c0.2,0,0.4,0.1,0.5,0.1c0.2,0.1,0.3,0.2,0.4,0.4
								c0.1,0.2,0.2,0.4,0.2,0.6c0,0.3,0,0.6-0.1,0.8c-0.1,0.2-0.3,0.4-0.6,0.5l1.3,1.7l-1.1,0.1l-1.1-1.6l-0.5,0.1l0.2,1.7
								l-0.9,0.1L47,105.3z M48.1,107l0.6-0.1c0.1,0,0.2,0,0.3,0c0.1,0,0.2,0,0.2-0.1c0.1,0,0.1-0.1,0.2-0.2c0-0.1,0.1-0.2,0-0.3
								c0-0.1,0-0.2-0.1-0.3s-0.1-0.1-0.2-0.1c-0.1,0-0.2,0-0.2,0c-0.1,0-0.2,0-0.3,0L48,106L48.1,107z"/>
							<path fill="#FFFFFF" d="M51.7,105.5l-1.2,0.2l-0.1-0.9l3.4-0.4l0.1,0.8l-1.2,0.2l0.4,3.5l-0.9,0.1L51.7,105.5z"/>
							<path fill="#FFFFFF" d="M54.2,104.4l0.9-0.1l0.5,4.4l-0.9,0.1L54.2,104.4z"/>
							<path fill="#FFFFFF" d="M56,104.1l2.8-0.4l0.1,0.9l-1.9,0.2l0.1,0.9l1.8-0.2l0.1,0.9l-1.8,0.2l0.2,1.7l-0.9,0.1L56,104.1z"/>
							<path fill="#FFFFFF" d="M59.5,103.7l0.9-0.1l0.5,4.3L60,108L59.5,103.7z"/>
							<path fill="#FFFFFF" d="M61.4,103.4l2.9-0.4l0.1,0.9l-1.9,0.3l0.1,0.8l1.8-0.2l0.1,0.9l-1.8,0.2l0.1,0.9l2-0.3l0.1,0.9
								l-3,0.4L61.4,103.4z"/>
							<path fill="#FFFFFF" d="M65.1,103l1.4-0.2c0.3,0,0.7,0,1,0c0.3,0,0.6,0.1,0.8,0.3c0.2,0.1,0.5,0.3,0.6,0.6
								c0.2,0.3,0.3,0.6,0.3,1c0,0.4,0,0.7-0.1,1c-0.1,0.3-0.2,0.5-0.4,0.7c-0.2,0.2-0.4,0.4-0.7,0.5c-0.3,0.1-0.6,0.2-0.9,0.3
								l-1.5,0.2L65.1,103z M66.4,106.3l0.5-0.1c0.2,0,0.4-0.1,0.6-0.1c0.2-0.1,0.3-0.2,0.5-0.3c0.1-0.1,0.2-0.3,0.3-0.5
								c0.1-0.2,0.1-0.4,0-0.6c0-0.2-0.1-0.4-0.2-0.5c-0.1-0.1-0.2-0.3-0.4-0.3c-0.1-0.1-0.3-0.1-0.5-0.2c-0.2,0-0.4,0-0.6,0
								l-0.5,0.1L66.4,106.3z"/>
						</g>
						<g>
							<path fill="#FFFFFF" d="M39,112.8l0.9-0.1c0.1,0,0.2,0,0.4,0c0.1,0,0.2,0,0.3,0.1c0.1,0,0.2,0.1,0.2,0.2
								c0.1,0.1,0.1,0.2,0.1,0.3c0,0.2,0,0.3-0.1,0.4c-0.1,0.1-0.2,0.2-0.3,0.3l0,0c0.1,0,0.2,0,0.3,0c0.1,0,0.2,0.1,0.2,0.1
								c0.1,0.1,0.1,0.1,0.2,0.2c0,0.1,0.1,0.2,0.1,0.3c0,0.2,0,0.3-0.1,0.4c-0.1,0.1-0.1,0.2-0.2,0.3c-0.1,0.1-0.2,0.1-0.4,0.2
								c-0.1,0-0.3,0.1-0.4,0.1l-0.9,0.1L39,112.8z M39.4,114l0.5-0.1c0.1,0,0.2,0,0.2,0c0.1,0,0.1-0.1,0.2-0.1
								c0.1,0,0.1-0.1,0.1-0.2c0-0.1,0-0.2,0-0.3c0-0.1,0-0.2-0.1-0.2c0-0.1-0.1-0.1-0.2-0.1c-0.1,0-0.1,0-0.2,0c-0.1,0-0.2,0-0.2,0
								l-0.5,0.1L39.4,114z M39.6,115.4l0.6-0.1c0.1,0,0.2,0,0.2-0.1c0.1,0,0.2-0.1,0.2-0.1c0.1,0,0.1-0.1,0.1-0.2
								c0-0.1,0-0.2,0-0.2c0-0.1,0-0.2-0.1-0.3c0-0.1-0.1-0.1-0.2-0.1c-0.1,0-0.1-0.1-0.2-0.1c-0.1,0-0.2,0-0.3,0l-0.6,0.1
								L39.6,115.4z"/>
							<path fill="#FFFFFF" d="M43.9,114c0,0.2,0,0.3,0,0.5c0,0.2-0.1,0.3-0.1,0.4c-0.1,0.1-0.2,0.2-0.3,0.3
								c-0.1,0.1-0.3,0.1-0.5,0.2c-0.2,0-0.4,0-0.5,0c-0.1,0-0.3-0.1-0.4-0.2c-0.1-0.1-0.2-0.2-0.2-0.4c-0.1-0.1-0.1-0.3-0.1-0.5
								l-0.2-1.8l0.3,0l0.2,1.8c0,0.1,0,0.2,0.1,0.3c0,0.1,0.1,0.2,0.2,0.3c0.1,0.1,0.2,0.1,0.3,0.2c0.1,0,0.2,0,0.4,0
								c0.1,0,0.3-0.1,0.4-0.1c0.1-0.1,0.2-0.1,0.2-0.2c0-0.1,0.1-0.2,0.1-0.3c0-0.1,0-0.2,0-0.4l-0.2-1.8l0.3,0L43.9,114z"/>
							<path fill="#FFFFFF" d="M45.3,113.6l-1.3-1.5l0.4-0.1l1,1.2l0.7-1.4l0.4-0.1l-0.9,1.8l0.1,1.3l-0.3,0L45.3,113.6z"/>
							<path fill="#FFFFFF" d="M46.9,111.7l1.8-0.2l0,0.3l-1.5,0.2l0.1,0.9l1.4-0.2l0,0.3l-1.4,0.2l0.1,1.1l1.5-0.2l0,0.3l-1.9,0.2
								L46.9,111.7z"/>
							<path fill="#FFFFFF" d="M49.3,111.4l0.7-0.1c0.1,0,0.3,0,0.4,0c0.1,0,0.3,0,0.4,0.1c0.1,0,0.2,0.1,0.3,0.2
								c0.1,0.1,0.1,0.2,0.2,0.4c0,0.2,0,0.4-0.1,0.6c-0.1,0.2-0.3,0.3-0.5,0.3l1,1.3l-0.4,0.1l-0.9-1.2l-0.4,0.1l0.2,1.3l-0.3,0
								L49.3,111.4z M49.8,112.7l0.3,0c0.1,0,0.2,0,0.3,0c0.1,0,0.2,0,0.3-0.1c0.1,0,0.1-0.1,0.2-0.2c0-0.1,0.1-0.2,0.1-0.3
								c0-0.1,0-0.2-0.1-0.2c0-0.1-0.1-0.1-0.2-0.1c-0.1,0-0.1,0-0.2,0c-0.1,0-0.2,0-0.3,0l-0.5,0.1L49.8,112.7z"/>
						</g>
						<polygon fill="#FFFFFF" points="34.5,115.9 20.1,117.8 20,116.5 34.4,114.6 						"/>
						<polygon fill="#FFFFFF" points="70.1,111.3 55.3,113.2 55.2,111.9 69.9,109.9 						"/>
						<g>
							<g>
								<polygon fill="#BC872C" points="33.5,91.2 33.5,91.2 32,88.5 31.3,88.6 31.7,92.3 32.2,92.3 31.8,89.2 31.9,89.2 33.4,92.1 
									33.8,92.1 34.6,88.9 34.7,88.9 35,91.9 35.5,91.9 35.1,88.1 34.3,88.2 								"/>
								<path fill="#BC872C" d="M37,89.1c-0.7,0.1-1.2,0.7-1.1,1.5c0.1,0.7,0.6,1.2,1.4,1.1c0.5-0.1,0.8-0.3,1-0.6l-0.4-0.2
									c-0.2,0.2-0.3,0.4-0.6,0.5c-0.4,0.1-0.9-0.2-0.9-0.6l2-0.2l0-0.2C38.2,89.6,37.8,89,37,89.1z M36.3,90.3
									c0-0.3,0.2-0.8,0.7-0.8c0.5-0.1,0.7,0.2,0.8,0.6L36.3,90.3z"/>
								<path fill="#BC872C" d="M40.6,89.1L40.6,89.1c-0.2-0.2-0.6-0.4-0.9-0.3c-0.7,0.1-1.2,0.7-1.1,1.5c0.1,0.7,0.6,1.2,1.4,1.1
									c0.3,0,0.8-0.1,0.8-0.1l0,0l0.5-0.1l-0.4-3.7l-0.5,0.1L40.6,89.1z M40,90.9c-0.5,0.1-0.8-0.3-0.9-0.8
									c-0.1-0.5,0.2-0.9,0.7-1c0.5-0.1,0.8,0.3,0.9,0.8C40.8,90.5,40.5,90.9,40,90.9z"/>
								<polygon fill="#BC872C" points="41.9,91.1 42.4,91 42.1,88.5 41.6,88.6 								"/>
								<path fill="#BC872C" d="M43.7,88.3c-0.3,0-0.7,0.2-0.9,0.5L43,89c0.2-0.2,0.3-0.3,0.7-0.4c0.4,0,0.6,0.2,0.6,0.5l0,0.1
									l-0.3,0c-0.7,0.1-1.3,0.4-1.2,1c0.1,0.5,0.5,0.6,0.9,0.6c0.4,0,0.8-0.1,0.8-0.1l0,0l0.4,0c0,0,0-0.3-0.1-0.5L44.8,89
									C44.7,88.5,44.4,88.2,43.7,88.3z M44.4,89.7c0,0.3-0.1,0.7-0.6,0.8c-0.3,0-0.5-0.1-0.6-0.3c0-0.4,0.5-0.5,0.9-0.6l0.2,0
									L44.4,89.7z"/>
								<path fill="#BC872C" d="M50.5,87.4c-0.3,0-0.7,0.2-0.9,0.5l0.3,0.3c0.2-0.2,0.3-0.3,0.7-0.4c0.4,0,0.6,0.2,0.6,0.5l0,0.1
									l-0.3,0c-0.7,0.1-1.3,0.4-1.2,1c0.1,0.5,0.5,0.6,0.9,0.6c0.4,0,0.8-0.1,0.8-0.1l0,0l0.4,0c0,0,0-0.3-0.1-0.4l-0.1-1.3
									C51.6,87.7,51.2,87.3,50.5,87.4z M51.3,88.8c0,0.3-0.1,0.7-0.6,0.8c-0.3,0-0.5-0.1-0.6-0.3c0-0.4,0.5-0.5,0.9-0.6l0.2,0
									L51.3,88.8z"/>
								<polygon fill="#BC872C" points="47.4,89.5 47.4,89.5 45.9,86.8 45.2,86.9 45.6,90.6 46.1,90.5 45.7,87.5 45.7,87.5 
									47.3,90.4 47.6,90.3 48.5,87.1 48.5,87.1 48.9,90.2 49.4,90.1 48.9,86.4 48.2,86.5 								"/>
								<path fill="#BC872C" d="M53,88.7l-0.1-1.1l0.7-0.1l0-0.4l-0.7,0.1l-0.1-0.7l-0.5,0.1l0.1,0.7l-0.5,0.1l0,0.4l0.5-0.1
									l0.1,1.3c0,0.4,0.1,0.8,0.8,0.8c0.1,0,0.3-0.1,0.4-0.1l0-0.4c-0.1,0.1-0.2,0.1-0.3,0.1C53.1,89.3,53.1,89,53,88.7z"/>
								<path fill="#BC872C" d="M55.2,86.8c-0.4,0-0.8,0.1-0.8,0.1l-0.1-1.2l-0.5,0.1l0.4,3.7l0.5-0.1l-0.1-1.3
									c-0.1-0.6,0.2-0.9,0.6-0.9c0.3,0,0.6,0.1,0.6,0.6l0.2,1.5l0.5-0.1l-0.2-1.6C56.2,87,55.7,86.8,55.2,86.8z"/>
								<polygon fill="#BC872C" points="41.6,88.2 42,88.1 42,87.7 41.5,87.7 								"/>
							</g>
						</g>
						<g>
							<path fill="#BC872C" d="M31.9,96.8c-0.1-0.4,0-0.8,0.1-1.2c0.1-0.4,0.3-0.7,0.5-1c0.2-0.3,0.5-0.5,0.9-0.7
								c0.4-0.2,0.7-0.3,1.1-0.4c0.4-0.1,0.8,0,1.2,0.1c0.4,0.1,0.7,0.2,1,0.5c0.3,0.2,0.5,0.5,0.7,0.8c0.2,0.3,0.3,0.7,0.4,1.2
								c0,0.4,0,0.8-0.1,1.2c-0.1,0.4-0.3,0.7-0.5,1c-0.2,0.3-0.5,0.5-0.9,0.7c-0.3,0.2-0.7,0.3-1.1,0.4c-0.4,0.1-0.8,0-1.2-0.1
								c-0.4-0.1-0.7-0.2-1-0.5c-0.3-0.2-0.5-0.5-0.7-0.8C32.1,97.6,32,97.2,31.9,96.8z M33.6,96.5c0,0.4,0.2,0.7,0.5,1
								c0.3,0.2,0.6,0.3,1,0.3c0.4-0.1,0.7-0.2,0.9-0.5c0.2-0.3,0.3-0.6,0.2-1c0-0.4-0.2-0.7-0.5-1c-0.3-0.2-0.6-0.3-1-0.3
								c-0.4,0.1-0.7,0.2-0.9,0.5C33.6,95.8,33.5,96.1,33.6,96.5z"/>
							<path fill="#BC872C" d="M38.7,93.1l1.5-0.2l0.1,0.7l0,0c0.1-0.1,0.1-0.2,0.2-0.3c0.1-0.1,0.2-0.2,0.3-0.3
								c0.1-0.1,0.3-0.2,0.4-0.3c0.2-0.1,0.3-0.1,0.5-0.1c0.4,0,0.8,0,1.1,0.1c0.3,0.1,0.6,0.3,0.9,0.5c0.3,0.2,0.5,0.5,0.6,0.8
								c0.2,0.3,0.3,0.7,0.3,1.1c0,0.4,0,0.8,0,1.1c-0.1,0.4-0.2,0.7-0.4,1c-0.2,0.3-0.4,0.5-0.7,0.7c-0.3,0.2-0.6,0.3-1,0.4
								c-0.3,0-0.7,0-1,0c-0.3-0.1-0.6-0.2-0.8-0.5l0,0l0.4,3.2l-1.7,0.2L38.7,93.1z M40.6,95.7c0,0.4,0.2,0.7,0.5,1
								c0.3,0.2,0.6,0.3,1,0.3c0.4-0.1,0.7-0.2,0.9-0.5c0.2-0.3,0.3-0.6,0.2-1c0-0.4-0.2-0.7-0.5-1c-0.3-0.2-0.6-0.3-1-0.3
								c-0.4,0.1-0.7,0.2-0.9,0.5C40.6,94.9,40.5,95.3,40.6,95.7z"/>
							<path fill="#BC872C" d="M51.1,96.2c-0.2,0.4-0.5,0.7-0.9,0.9c-0.4,0.2-0.8,0.4-1.2,0.4c-0.4,0.1-0.8,0-1.2-0.1
								c-0.4-0.1-0.7-0.2-1-0.5c-0.3-0.2-0.5-0.5-0.7-0.8c-0.2-0.3-0.3-0.7-0.4-1.2c0-0.4,0-0.8,0.1-1.2c0.1-0.4,0.3-0.7,0.5-1
								c0.2-0.3,0.5-0.5,0.9-0.7c0.3-0.2,0.7-0.3,1.1-0.3c0.4,0,0.7,0,1.1,0.1c0.3,0.1,0.6,0.3,0.9,0.5c0.2,0.2,0.4,0.5,0.6,0.8
								c0.2,0.3,0.3,0.7,0.3,1.2l0.1,0.5l-3.8,0.5c0.1,0.3,0.3,0.6,0.5,0.7c0.2,0.2,0.5,0.2,0.8,0.2c0.3,0,0.5-0.1,0.7-0.3
								c0.2-0.1,0.3-0.3,0.4-0.5L51.1,96.2z M49.4,93.9c0-0.3-0.1-0.5-0.4-0.7C48.8,93,48.6,93,48.3,93c-0.2,0-0.3,0.1-0.5,0.2
								c-0.1,0.1-0.2,0.2-0.3,0.3c-0.1,0.1-0.2,0.2-0.2,0.4c0,0.1-0.1,0.3,0,0.4L49.4,93.9z"/>
							<path fill="#BC872C" d="M51.8,91.5l1.6-0.2l0.1,0.7l0,0c0-0.1,0.1-0.2,0.2-0.3c0.1-0.1,0.2-0.2,0.3-0.3
								c0.1-0.1,0.3-0.2,0.4-0.3c0.2-0.1,0.3-0.1,0.5-0.1c0.4-0.1,0.8,0,1,0.1c0.3,0.1,0.5,0.3,0.7,0.5c0.2,0.2,0.3,0.5,0.4,0.8
								c0.1,0.3,0.2,0.6,0.2,1l0.3,3l-1.6,0.2l-0.3-2.7c0-0.2,0-0.3-0.1-0.5c0-0.2-0.1-0.3-0.2-0.5c-0.1-0.1-0.2-0.2-0.3-0.3
								c-0.1-0.1-0.3-0.1-0.5-0.1c-0.2,0-0.4,0.1-0.5,0.2c-0.1,0.1-0.2,0.2-0.3,0.4c-0.1,0.1-0.1,0.3-0.1,0.5c0,0.2,0,0.3,0,0.5
								l0.3,2.7l-1.6,0.2L51.8,91.5z"/>
						</g>
					</g>
				</g>
			</g>
			<g>
				<g>
					<g>
						<polygon fill="#67C6E8" points="88,185.9 64.5,189.2 25.4,194.6 1.9,197.9 7.1,190.8 0.5,185.1 86.7,173.3 82,180.5 						"/>
						<polygon fill="#D1D2D4" stroke="#FFFFFF" stroke-miterlimit="10" points="41,146.9 44.5,148.8 48,146.9 50.9,149.6 
							54.7,148.7 56.8,152 60.7,152.1 61.9,155.9 65.7,157 65.9,161 69.3,163 68.5,167 71.3,169.7 69.6,173.4 71.6,176.8 69.1,180 
							70.1,183.8 67,186.3 67.1,190.3 63.4,191.9 62.6,195.8 58.7,196.4 56.9,200.1 53,199.7 50.4,202.8 46.7,201.4 43.4,203.8 
							40.2,201.5 36.5,203 34,199.9 30,200.4 28.3,196.8 24.4,196.3 23.6,192.3 20,190.8 20.2,186.7 17.1,184.3 18.3,180.4 
							15.9,177.2 18,173.7 16.5,170 19.4,167.1 18.8,163.1 22.3,161.1 22.7,157 26.6,156 27.9,152.1 31.9,152 34.2,148.6 38,149.6 
													"/>
						<path fill="none" stroke="#FFFFFF" d="M65.3,172c-1.2-12.1-11.9-20.7-23.7-19.1c-12,1.5-20.7,12.7-19.4,25
							c1.3,12.2,12.1,20.7,24,19.1C58,195.2,66.5,184.1,65.3,172z"/>
						<path fill="#E7E7E8" d="M64.1,172.2c-1.2-11.4-11.2-19.5-22.4-18c-11.3,1.5-19.5,12-18.3,23.5c1.2,11.5,11.4,19.6,22.6,18
							C57.2,194.1,65.2,183.6,64.1,172.2z"/>
						<g>
							<polygon fill="#71CAF2" points="78.2,185.9 10.7,195.3 9.2,181.1 76.8,172 							"/>
							<polygon fill="#51A8BF" points="10.8,195.3 29,192.8 29,195.3 							"/>
							<polygon fill="#51A8BF" points="78.5,185.9 62.7,188.1 63.3,190.4 							"/>
						</g>
						<g>
							<path fill="#FFFFFF" d="M19.1,183.3c-0.1-0.1-0.2-0.2-0.3-0.2c-0.1,0-0.3,0-0.4,0c-0.1,0-0.1,0-0.2,0.1
								c-0.1,0-0.1,0.1-0.2,0.1c-0.1,0-0.1,0.1-0.1,0.2c0,0.1,0,0.1,0,0.2c0,0.1,0.1,0.2,0.2,0.3c0.1,0.1,0.2,0.1,0.4,0.1
								c0.2,0,0.3,0.1,0.5,0.1c0.2,0,0.3,0.1,0.5,0.1c0.2,0.1,0.3,0.2,0.4,0.3c0.1,0.1,0.2,0.3,0.2,0.6c0,0.2,0,0.5-0.1,0.7
								c-0.1,0.2-0.2,0.4-0.3,0.5c-0.1,0.1-0.3,0.3-0.5,0.3c-0.2,0.1-0.4,0.1-0.6,0.2c-0.3,0-0.6,0-0.8,0c-0.3-0.1-0.5-0.2-0.7-0.3
								l0.6-0.9c0.1,0.1,0.2,0.2,0.4,0.3c0.2,0.1,0.3,0.1,0.5,0c0.1,0,0.2,0,0.2-0.1c0.1,0,0.1-0.1,0.2-0.1c0.1,0,0.1-0.1,0.1-0.2
								c0-0.1,0-0.1,0-0.2c0-0.1-0.1-0.2-0.2-0.3c-0.1-0.1-0.2-0.1-0.4-0.1c-0.2,0-0.3-0.1-0.5-0.1c-0.2,0-0.4-0.1-0.5-0.2
								c-0.2-0.1-0.3-0.2-0.4-0.3c-0.1-0.1-0.2-0.3-0.2-0.6c0-0.2,0-0.5,0.1-0.6c0.1-0.2,0.2-0.4,0.3-0.5c0.1-0.1,0.3-0.3,0.5-0.3
								c0.2-0.1,0.4-0.1,0.6-0.2c0.2,0,0.5,0,0.7,0c0.2,0,0.5,0.1,0.7,0.3L19.1,183.3z"/>
							<path fill="#FFFFFF" d="M20.3,182.1l1-0.1l0.5,4.5l-1,0.1L20.3,182.1z"/>
							<path fill="#FFFFFF" d="M22.2,181.8l1-0.1l0.4,3.5l1.8-0.2l0.1,0.9l-2.8,0.4L22.2,181.8z"/>
							<path fill="#FFFFFF" d="M24.5,181.5l1.1-0.1l1.4,2.8l0,0l0.8-3.1l1-0.1l-1.3,4.7l-0.8,0.1L24.5,181.5z"/>
							<path fill="#FFFFFF" d="M29.3,180.8l3-0.4l0.1,0.9l-2,0.3l0.1,0.8l1.9-0.3l0.1,0.9l-1.9,0.3l0.1,0.9l2.1-0.3l0.1,0.9
								l-3.1,0.4L29.3,180.8z"/>
							<path fill="#FFFFFF" d="M33.2,180.3l1.7-0.2c0.2,0,0.4,0,0.6,0c0.2,0,0.4,0.1,0.5,0.1c0.2,0.1,0.3,0.2,0.4,0.4
								c0.1,0.2,0.2,0.4,0.2,0.6c0,0.3,0,0.6-0.2,0.8c-0.1,0.2-0.4,0.4-0.7,0.5l1.3,1.7l-1.2,0.2l-1.1-1.6l-0.5,0.1l0.2,1.8l-1,0.1
								L33.2,180.3z M34.3,182l0.6-0.1c0.1,0,0.2,0,0.3,0c0.1,0,0.2-0.1,0.3-0.1c0.1,0,0.1-0.1,0.2-0.2c0-0.1,0.1-0.2,0-0.3
								c0-0.1,0-0.2-0.1-0.3c-0.1-0.1-0.1-0.1-0.2-0.1c-0.1,0-0.2,0-0.2,0c-0.1,0-0.2,0-0.3,0l-0.6,0.1L34.3,182z"/>
							<path fill="#FFFFFF" d="M41.9,180.3c-0.1-0.1-0.2-0.2-0.4-0.2c-0.1,0-0.3-0.1-0.5,0c-0.2,0-0.3,0.1-0.5,0.2
								c-0.1,0.1-0.3,0.2-0.4,0.4c-0.1,0.1-0.2,0.3-0.2,0.5c0,0.2-0.1,0.4,0,0.6c0,0.2,0.1,0.4,0.2,0.6c0.1,0.2,0.2,0.3,0.3,0.4
								c0.1,0.1,0.3,0.2,0.4,0.2c0.2,0.1,0.3,0.1,0.5,0c0.2,0,0.4-0.1,0.5-0.2c0.1-0.1,0.3-0.2,0.3-0.4l0.9,0.5
								c-0.2,0.3-0.4,0.5-0.6,0.7c-0.3,0.2-0.6,0.3-0.9,0.3c-0.3,0-0.7,0-1,0c-0.3-0.1-0.6-0.2-0.8-0.4c-0.2-0.2-0.4-0.4-0.6-0.7
								c-0.1-0.3-0.2-0.6-0.3-0.9s0-0.7,0.1-1c0.1-0.3,0.2-0.6,0.4-0.8c0.2-0.2,0.4-0.4,0.7-0.6c0.3-0.1,0.6-0.2,0.9-0.3
								c0.1,0,0.3,0,0.4,0c0.1,0,0.3,0,0.4,0.1c0.1,0,0.3,0.1,0.4,0.1c0.1,0.1,0.2,0.2,0.4,0.3L41.9,180.3z"/>
							<path fill="#FFFFFF" d="M43.2,178.9l2.9-0.4l0.1,0.9l-2,0.3l0.1,0.8l1.9-0.3l0.1,0.9l-1.9,0.3l0.1,0.9l2.1-0.3l0.1,0.9
								l-3.1,0.4L43.2,178.9z"/>
							<path fill="#FFFFFF" d="M47,178.4l1.7-0.2c0.2,0,0.4,0,0.6,0c0.2,0,0.4,0.1,0.5,0.1c0.2,0.1,0.3,0.2,0.4,0.4
								c0.1,0.2,0.2,0.4,0.2,0.6c0,0.3,0,0.6-0.2,0.8c-0.1,0.2-0.4,0.4-0.7,0.5l1.3,1.7l-1.1,0.2l-1.1-1.6l-0.5,0.1l0.2,1.8l-1,0.1
								L47,178.4z M48.2,180.1l0.6-0.1c0.1,0,0.2,0,0.3,0c0.1,0,0.2-0.1,0.3-0.1c0.1,0,0.1-0.1,0.2-0.2c0-0.1,0.1-0.2,0-0.3
								c0-0.1,0-0.2-0.1-0.3c-0.1-0.1-0.1-0.1-0.2-0.1c-0.1,0-0.2,0-0.2,0c-0.1,0-0.2,0-0.3,0l-0.6,0.1L48.2,180.1z"/>
							<path fill="#FFFFFF" d="M51.8,178.6l-1.2,0.2l-0.1-0.9l3.4-0.5l0.1,0.9l-1.2,0.2l0.4,3.6l-1,0.1L51.8,178.6z"/>
							<path fill="#FFFFFF" d="M54.4,177.4l1-0.1l0.5,4.4l-1,0.1L54.4,177.4z"/>
							<path fill="#FFFFFF" d="M56.2,177.2l2.9-0.4l0.1,0.9l-1.9,0.3l0.1,0.9l1.8-0.2l0.1,0.9l-1.8,0.2l0.2,1.7l-0.9,0.1L56.2,177.2
								z"/>
							<path fill="#FFFFFF" d="M59.8,176.7l0.9-0.1l0.5,4.4l-0.9,0.1L59.8,176.7z"/>
							<path fill="#FFFFFF" d="M61.7,176.4l2.9-0.4l0.1,0.9l-2,0.3l0.1,0.8l1.9-0.3l0.1,0.9l-1.9,0.3l0.1,0.9l2.1-0.3l0.1,0.9
								l-3,0.4L61.7,176.4z"/>
							<path fill="#FFFFFF" d="M65.4,175.9l1.4-0.2c0.3,0,0.7-0.1,1,0c0.3,0,0.6,0.1,0.8,0.3c0.2,0.1,0.5,0.3,0.6,0.6
								c0.2,0.3,0.3,0.6,0.3,1c0,0.4,0,0.7-0.1,1c-0.1,0.3-0.3,0.5-0.5,0.8c-0.2,0.2-0.4,0.4-0.7,0.5c-0.3,0.1-0.6,0.2-0.9,0.3
								l-1.5,0.2L65.4,175.9z M66.7,179.3l0.5-0.1c0.2,0,0.4-0.1,0.6-0.2c0.2-0.1,0.3-0.2,0.5-0.3c0.1-0.1,0.2-0.3,0.3-0.5
								c0.1-0.2,0.1-0.4,0.1-0.6c0-0.2-0.1-0.4-0.2-0.5c-0.1-0.1-0.2-0.3-0.4-0.4c-0.1-0.1-0.3-0.1-0.5-0.2c-0.2,0-0.4,0-0.6,0
								l-0.6,0.1L66.7,179.3z"/>
						</g>
						<g>
							<path fill="#FFFFFF" d="M37.5,186.1l0.9-0.1c0.1,0,0.2,0,0.4,0c0.1,0,0.2,0,0.3,0.1c0.1,0,0.2,0.1,0.2,0.2
								c0.1,0.1,0.1,0.2,0.1,0.3c0,0.2,0,0.3-0.1,0.4c-0.1,0.1-0.2,0.2-0.3,0.3l0,0c0.1,0,0.2,0,0.3,0c0.1,0,0.2,0.1,0.2,0.1
								c0.1,0.1,0.1,0.1,0.2,0.2c0,0.1,0.1,0.2,0.1,0.3c0,0.2,0,0.3-0.1,0.4c-0.1,0.1-0.1,0.2-0.2,0.3c-0.1,0.1-0.2,0.1-0.4,0.2
								c-0.1,0-0.3,0.1-0.4,0.1l-0.9,0.1L37.5,186.1z M38,187.3l0.5-0.1c0.1,0,0.2,0,0.2,0c0.1,0,0.1-0.1,0.2-0.1
								c0.1,0,0.1-0.1,0.1-0.2c0-0.1,0-0.2,0-0.3c0-0.1,0-0.2-0.1-0.2c0-0.1-0.1-0.1-0.2-0.1c-0.1,0-0.1,0-0.2,0s-0.2,0-0.2,0
								l-0.5,0.1L38,187.3z M38.1,188.7l0.6-0.1c0.1,0,0.2,0,0.2-0.1c0.1,0,0.2-0.1,0.2-0.1c0.1,0,0.1-0.1,0.1-0.2
								c0-0.1,0-0.2,0-0.2c0-0.1,0-0.2-0.1-0.3c0-0.1-0.1-0.1-0.2-0.1c-0.1,0-0.1-0.1-0.2-0.1c-0.1,0-0.2,0-0.3,0l-0.6,0.1
								L38.1,188.7z"/>
							<path fill="#FFFFFF" d="M42.5,187.3c0,0.2,0,0.3,0,0.5c0,0.2-0.1,0.3-0.1,0.4c-0.1,0.1-0.2,0.2-0.3,0.3
								c-0.1,0.1-0.3,0.1-0.5,0.2c-0.2,0-0.4,0-0.5,0c-0.1,0-0.3-0.1-0.4-0.2c-0.1-0.1-0.2-0.2-0.2-0.4c-0.1-0.1-0.1-0.3-0.1-0.5
								l-0.2-1.8l0.3,0l0.2,1.8c0,0.1,0,0.2,0.1,0.3c0,0.1,0.1,0.2,0.2,0.3c0.1,0.1,0.1,0.1,0.3,0.2c0.1,0,0.2,0,0.4,0
								c0.1,0,0.3-0.1,0.4-0.1c0.1-0.1,0.2-0.1,0.2-0.2c0-0.1,0.1-0.2,0.1-0.3c0-0.1,0-0.2,0-0.4l-0.2-1.8l0.3,0L42.5,187.3z"/>
							<path fill="#FFFFFF" d="M43.9,186.9l-1.3-1.5l0.4-0.1l1,1.2l0.7-1.4l0.4-0.1l-0.9,1.8l0.1,1.3l-0.3,0L43.9,186.9z"/>
							<path fill="#FFFFFF" d="M45.4,185l1.8-0.3l0,0.3l-1.5,0.2l0.1,0.9l1.4-0.2l0,0.3l-1.4,0.2l0.1,1.1l1.5-0.2l0,0.3l-1.9,0.3
								L45.4,185z"/>
							<path fill="#FFFFFF" d="M47.8,184.7l0.7-0.1c0.1,0,0.3,0,0.4,0c0.1,0,0.3,0,0.4,0.1c0.1,0,0.2,0.1,0.3,0.2
								c0.1,0.1,0.1,0.2,0.1,0.4c0,0.2,0,0.4-0.1,0.6c-0.1,0.2-0.3,0.3-0.5,0.3l1,1.2l-0.4,0.1l-0.9-1.2l-0.4,0.1l0.1,1.3l-0.3,0
								L47.8,184.7z M48.3,185.9l0.3,0c0.1,0,0.2,0,0.3,0c0.1,0,0.2-0.1,0.3-0.1c0.1,0,0.1-0.1,0.2-0.2c0-0.1,0.1-0.2,0.1-0.3
								c0-0.1,0-0.2-0.1-0.2c0-0.1-0.1-0.1-0.2-0.1c-0.1,0-0.1,0-0.2,0c-0.1,0-0.2,0-0.3,0l-0.5,0.1L48.3,185.9z"/>
						</g>
						<polygon fill="#FFFFFF" points="32.9,188.8 18.3,190.8 18.2,190.2 32.8,188.2 						"/>
						<polygon fill="#FFFFFF" points="68.2,183.9 53.9,185.9 53.8,185.3 68.1,183.3 						"/>
						<g>
							<g>
								<polygon fill="#AEAFAF" points="32.3,164.7 32.3,164.7 30.9,162 30.1,162.1 30.5,165.8 31,165.7 30.7,162.7 30.7,162.7 
									32.2,165.6 32.6,165.5 33.5,162.3 33.5,162.3 33.8,165.4 34.3,165.3 33.9,161.6 33.2,161.7 								"/>
								<path fill="#AEAFAF" d="M35.8,162.5c-0.7,0.1-1.2,0.7-1.1,1.5c0.1,0.7,0.6,1.2,1.4,1.1c0.5-0.1,0.8-0.3,1-0.6l-0.4-0.2
									c-0.2,0.2-0.3,0.4-0.6,0.5c-0.4,0.1-0.9-0.2-0.9-0.6l1.9-0.3l0-0.2C37,163.1,36.6,162.4,35.8,162.5z M35.1,163.7
									c0-0.3,0.2-0.8,0.7-0.8c0.5-0.1,0.7,0.2,0.8,0.6L35.1,163.7z"/>
								<path fill="#AEAFAF" d="M39.4,162.5L39.4,162.5c-0.2-0.2-0.6-0.4-0.9-0.3c-0.7,0.1-1.2,0.7-1.1,1.5c0.1,0.7,0.6,1.2,1.4,1.1
									c0.3,0,0.8-0.1,0.8-0.1l0,0l0.5-0.1l-0.4-3.7l-0.5,0.1L39.4,162.5z M38.8,164.3c-0.5,0.1-0.8-0.3-0.9-0.8
									c-0.1-0.5,0.2-0.9,0.7-1c0.5-0.1,0.8,0.3,0.9,0.8C39.6,163.9,39.3,164.3,38.8,164.3z"/>
								<polygon fill="#AEAFAF" points="40.7,164.5 41.2,164.4 40.9,161.9 40.4,162 								"/>
								<path fill="#AEAFAF" d="M42.5,161.7c-0.3,0-0.7,0.2-0.9,0.5l0.3,0.3c0.2-0.2,0.3-0.3,0.7-0.4c0.4-0.1,0.6,0.2,0.6,0.4l0,0.1
									l-0.3,0c-0.7,0.1-1.3,0.4-1.2,1c0,0.5,0.5,0.6,0.9,0.6c0.4,0,0.8-0.1,0.8-0.1l0,0l0.4-0.1c0,0,0-0.3,0-0.4l-0.1-1.3
									C43.5,161.9,43.2,161.6,42.5,161.7z M43.2,163.1c0,0.3-0.1,0.7-0.6,0.8c-0.3,0-0.5-0.1-0.6-0.3c0-0.4,0.5-0.5,0.9-0.6l0.2,0
									L43.2,163.1z"/>
								<path fill="#AEAFAF" d="M49.3,160.8c-0.3,0-0.7,0.2-0.9,0.5l0.3,0.3c0.2-0.2,0.3-0.3,0.7-0.4c0.4-0.1,0.6,0.2,0.6,0.4l0,0.1
									l-0.3,0c-0.7,0.1-1.3,0.4-1.2,1c0,0.5,0.5,0.6,0.9,0.6c0.4,0,0.8-0.1,0.8-0.1l0,0l0.4-0.1c0,0,0-0.3,0-0.4l-0.1-1.3
									C50.4,161,50,160.7,49.3,160.8z M50,162.2c0,0.3-0.1,0.7-0.6,0.8c-0.3,0-0.5-0.1-0.6-0.3c0-0.4,0.5-0.5,0.9-0.6l0.2,0
									L50,162.2z"/>
								<polygon fill="#AEAFAF" points="46.2,162.8 46.1,162.8 44.7,160.2 44,160.3 44.4,164 44.9,163.9 44.5,160.9 44.6,160.9 
									46.1,163.8 46.4,163.7 47.3,160.5 47.3,160.5 47.6,163.5 48.1,163.5 47.7,159.8 47,159.9 								"/>
								<path fill="#AEAFAF" d="M51.8,162l-0.1-1.1l0.7-0.1l0-0.4l-0.7,0.1l-0.1-0.7l-0.5,0.1l0.1,0.7l-0.5,0.1l0,0.4l0.5-0.1
									l0.1,1.3c0,0.4,0.1,0.8,0.8,0.7c0.1,0,0.3-0.1,0.4-0.1l0-0.4c-0.1,0.1-0.2,0.1-0.3,0.1C51.9,162.6,51.9,162.3,51.8,162z"/>
								<path fill="#AEAFAF" d="M54,160.1c-0.4,0-0.8,0.1-0.8,0.1l-0.1-1.2l-0.5,0.1l0.4,3.7l0.5-0.1l-0.1-1.3
									c-0.1-0.6,0.2-0.9,0.6-0.9c0.3,0,0.6,0.1,0.6,0.6l0.2,1.5l0.5-0.1L55,161C54.9,160.3,54.5,160.1,54,160.1z"/>
								<polygon fill="#AEAFAF" points="40.4,161.6 40.9,161.5 40.8,161.1 40.4,161.1 								"/>
							</g>
						</g>
						<g>
							<path fill="#AEAFAF" d="M30.7,170.2c0-0.4,0-0.8,0.1-1.2c0.1-0.4,0.3-0.7,0.5-1c0.2-0.3,0.5-0.5,0.9-0.7
								c0.4-0.2,0.7-0.3,1.1-0.4c0.4-0.1,0.8,0,1.2,0c0.4,0.1,0.7,0.2,1,0.5c0.3,0.2,0.5,0.5,0.7,0.8c0.2,0.3,0.3,0.7,0.4,1.1
								c0,0.4,0,0.8-0.1,1.2c-0.1,0.4-0.3,0.7-0.5,1c-0.2,0.3-0.5,0.5-0.9,0.7c-0.3,0.2-0.7,0.3-1.1,0.4c-0.4,0.1-0.8,0-1.2,0
								c-0.4-0.1-0.7-0.2-1-0.5c-0.3-0.2-0.5-0.5-0.7-0.8C30.9,171,30.7,170.6,30.7,170.2z M32.3,170c0,0.4,0.2,0.7,0.5,1
								c0.3,0.2,0.6,0.3,1,0.3c0.4-0.1,0.7-0.2,0.9-0.5c0.2-0.3,0.3-0.6,0.2-1c0-0.4-0.2-0.7-0.5-1c-0.3-0.2-0.6-0.3-1-0.3
								c-0.4,0.1-0.7,0.2-0.9,0.5C32.4,169.2,32.3,169.6,32.3,170z"/>
							<path fill="#AEAFAF" d="M37.5,166.5l1.5-0.2l0.1,0.7l0,0c0.1-0.1,0.1-0.2,0.2-0.3c0.1-0.1,0.2-0.2,0.3-0.3
								c0.1-0.1,0.3-0.2,0.4-0.3c0.2-0.1,0.3-0.1,0.5-0.2c0.4-0.1,0.8,0,1.1,0.1c0.3,0.1,0.6,0.3,0.9,0.5c0.3,0.2,0.5,0.5,0.6,0.8
								c0.2,0.3,0.3,0.7,0.3,1.1c0,0.4,0,0.8-0.1,1.1c-0.1,0.4-0.2,0.7-0.4,1c-0.2,0.3-0.4,0.5-0.7,0.7c-0.3,0.2-0.6,0.3-1,0.4
								c-0.3,0-0.7,0-1,0c-0.3-0.1-0.6-0.2-0.8-0.5l0,0l0.3,3.1l-1.7,0.2L37.5,166.5z M39.3,169.1c0,0.4,0.2,0.7,0.5,1
								c0.3,0.2,0.6,0.3,1,0.3c0.4-0.1,0.7-0.2,0.9-0.5c0.2-0.3,0.3-0.6,0.2-1s-0.2-0.7-0.5-1c-0.3-0.2-0.6-0.3-1-0.3
								c-0.4,0.1-0.7,0.2-0.9,0.5C39.3,168.3,39.3,168.7,39.3,169.1z"/>
							<path fill="#AEAFAF" d="M49.8,169.5c-0.2,0.4-0.5,0.7-0.9,0.9c-0.4,0.2-0.8,0.4-1.2,0.4c-0.4,0.1-0.8,0-1.2,0
								c-0.4-0.1-0.7-0.2-1-0.5c-0.3-0.2-0.5-0.5-0.7-0.8c-0.2-0.3-0.3-0.7-0.4-1.1c0-0.4,0-0.8,0.1-1.2c0.1-0.4,0.3-0.7,0.5-1
								c0.2-0.3,0.5-0.5,0.9-0.7c0.3-0.2,0.7-0.3,1.1-0.4c0.4-0.1,0.7,0,1.1,0.1c0.3,0.1,0.6,0.3,0.8,0.5c0.2,0.2,0.4,0.5,0.6,0.8
								c0.2,0.3,0.3,0.7,0.3,1.2l0.1,0.5l-3.8,0.5c0.1,0.3,0.3,0.5,0.5,0.7c0.2,0.2,0.5,0.2,0.8,0.2c0.3,0,0.5-0.1,0.7-0.3
								c0.2-0.1,0.3-0.3,0.4-0.5L49.8,169.5z M48.1,167.3c0-0.3-0.1-0.5-0.3-0.7c-0.2-0.2-0.5-0.2-0.8-0.2c-0.2,0-0.3,0.1-0.5,0.2
								c-0.1,0.1-0.2,0.2-0.3,0.3c-0.1,0.1-0.2,0.2-0.2,0.4c0,0.1-0.1,0.3-0.1,0.4L48.1,167.3z"/>
							<path fill="#AEAFAF" d="M50.6,164.8l1.6-0.2l0.1,0.7l0,0c0-0.1,0.1-0.2,0.2-0.3c0.1-0.1,0.2-0.2,0.3-0.3
								c0.1-0.1,0.3-0.2,0.4-0.3c0.2-0.1,0.3-0.1,0.5-0.2c0.4-0.1,0.8,0,1,0.1c0.3,0.1,0.5,0.3,0.7,0.5c0.2,0.2,0.3,0.5,0.4,0.8
								c0.1,0.3,0.1,0.6,0.2,1l0.3,3l-1.6,0.2l-0.3-2.7c0-0.2,0-0.3-0.1-0.5c0-0.2-0.1-0.3-0.1-0.5c-0.1-0.1-0.2-0.2-0.3-0.3
								c-0.1-0.1-0.3-0.1-0.5-0.1c-0.2,0-0.4,0.1-0.5,0.2c-0.1,0.1-0.2,0.2-0.3,0.4c-0.1,0.1-0.1,0.3-0.1,0.5c0,0.2,0,0.3,0,0.5
								l0.3,2.7l-1.6,0.2L50.6,164.8z"/>
						</g>
					</g>
				</g>
			</g>
		</g>
		<g>
			<g>
				<g>
					<polygon fill="#F42D67" points="88,336 64.6,338.1 25.7,341.7 2.4,343.8 7.7,336.9 1.3,330.8 87,323.3 82.2,330.2 					"/>
					<polygon fill="#E2A726" stroke="#FFFFFF" stroke-miterlimit="10" points="42.2,294.7 45.6,296.7 49.2,295 51.9,297.8 55.8,297 
						57.8,300.4 61.7,300.7 62.8,304.5 66.5,305.7 66.6,309.6 69.9,311.7 69,315.6 71.7,318.4 70,321.9 71.8,325.4 69.3,328.3 
						70.3,332.2 67,334.4 67.1,338.3 63.4,339.7 62.4,343.5 58.6,344 56.7,347.4 52.8,346.9 50.2,349.8 46.6,348.3 43.3,350.4 
						40.2,348 36.4,349.3 34,346.2 30.1,346.5 28.5,342.9 24.6,342.2 24,338.3 20.4,336.6 20.7,332.6 17.7,330.1 19,326.4 
						16.6,323.2 18.9,319.9 17.4,316.2 20.4,313.5 19.8,309.6 23.4,307.8 23.9,303.8 27.7,302.9 29.2,299.2 33.1,299.3 35.4,296.1 
						39.2,297.2 					"/>
					<path fill="#F3D480" d="M64.5,320.5c-0.9-11.2-10.6-19.6-21.8-18.7C31.5,302.8,23.1,312.7,24,324c0.9,11.3,10.8,19.6,22,18.6
						C57.1,341.6,65.4,331.7,64.5,320.5z"/>
					<path fill="none" stroke="#FFFFFF" d="M65.7,320.4c-1-11.9-11.3-20.8-23.1-19.8c-11.9,1-20.8,11.5-19.8,23.5
						c1,12,11.4,20.8,23.3,19.7C57.9,342.8,66.7,332.3,65.7,320.4z"/>
					<g>
						<polygon fill="#F4256A" points="78.6,333.8 11.1,339.9 10,326.3 77.5,320.4 						"/>
						<polygon fill="#D8235F" points="11.1,339.9 24.4,338.7 24.6,340.5 						"/>
						<polygon fill="#D8235F" points="78.5,333.8 67,334.8 67.1,336.7 						"/>
					</g>
					<g>
						<path fill="#FFFFFF" d="M23.1,331.9c-0.3,0.2-0.5,0.3-0.8,0.4c-0.3,0.1-0.6,0.2-0.9,0.2c-0.3,0-0.6,0-0.9-0.1
							c-0.3-0.1-0.5-0.2-0.8-0.4c-0.2-0.2-0.4-0.4-0.5-0.7c-0.1-0.3-0.2-0.6-0.2-0.9c0-0.3,0-0.7,0.1-0.9c0.1-0.3,0.2-0.5,0.4-0.8
							c0.2-0.2,0.4-0.4,0.7-0.5c0.3-0.1,0.6-0.2,0.9-0.2c0.3,0,0.7,0,1,0c0.3,0.1,0.6,0.2,0.8,0.4l-0.6,0.8
							c-0.1-0.1-0.3-0.2-0.5-0.3c-0.2-0.1-0.4-0.1-0.6,0c-0.2,0-0.4,0.1-0.5,0.2c-0.2,0.1-0.3,0.2-0.4,0.3c-0.1,0.1-0.2,0.3-0.2,0.5
							c0,0.2-0.1,0.4,0,0.6c0,0.2,0.1,0.4,0.1,0.5c0.1,0.2,0.2,0.3,0.3,0.4c0.1,0.1,0.3,0.2,0.4,0.3c0.2,0.1,0.4,0.1,0.6,0.1
							c0.2,0,0.4-0.1,0.5-0.1c0.1-0.1,0.3-0.1,0.3-0.2l-0.1-0.7l-0.8,0.1l-0.1-0.9l1.7-0.1L23.1,331.9z"/>
						<path fill="#FFFFFF" d="M23.5,330.1c0-0.3,0-0.7,0.1-0.9c0.1-0.3,0.2-0.5,0.4-0.8c0.2-0.2,0.4-0.4,0.7-0.5
							c0.3-0.1,0.6-0.2,0.9-0.2c0.3,0,0.6,0,0.9,0.1c0.3,0.1,0.5,0.2,0.8,0.4c0.2,0.2,0.4,0.4,0.5,0.7c0.1,0.3,0.2,0.6,0.2,0.9
							c0,0.3,0,0.7-0.1,0.9c-0.1,0.3-0.2,0.5-0.4,0.8c-0.2,0.2-0.4,0.4-0.7,0.5c-0.3,0.1-0.6,0.2-0.9,0.2c-0.3,0-0.6,0-0.9-0.1
							c-0.3-0.1-0.5-0.2-0.8-0.4c-0.2-0.2-0.4-0.4-0.5-0.7C23.6,330.7,23.6,330.4,23.5,330.1z M24.5,330c0,0.2,0.1,0.4,0.1,0.5
							c0.1,0.2,0.2,0.3,0.3,0.4c0.1,0.1,0.3,0.2,0.4,0.3c0.2,0.1,0.4,0.1,0.6,0.1c0.2,0,0.4-0.1,0.5-0.2c0.2-0.1,0.3-0.2,0.4-0.3
							c0.1-0.1,0.2-0.3,0.2-0.5c0-0.2,0.1-0.4,0-0.6c0-0.2-0.1-0.4-0.1-0.5c-0.1-0.2-0.2-0.3-0.3-0.4c-0.1-0.1-0.3-0.2-0.4-0.3
							c-0.2-0.1-0.4-0.1-0.6-0.1c-0.2,0-0.4,0.1-0.5,0.2c-0.2,0.1-0.3,0.2-0.4,0.3c-0.1,0.1-0.2,0.3-0.2,0.5
							C24.5,329.6,24.5,329.8,24.5,330z"/>
						<path fill="#FFFFFF" d="M28.6,327.4l0.9-0.1l0.3,3.4l1.7-0.2l0.1,0.9l-2.7,0.2L28.6,327.4z"/>
						<path fill="#FFFFFF" d="M31.8,327.2l1.4-0.1c0.3,0,0.7,0,1,0c0.3,0,0.6,0.2,0.8,0.3c0.2,0.2,0.4,0.4,0.6,0.6
							c0.2,0.3,0.3,0.6,0.3,1c0,0.3,0,0.7-0.1,0.9c-0.1,0.3-0.3,0.5-0.5,0.7c-0.2,0.2-0.4,0.4-0.7,0.5c-0.3,0.1-0.6,0.2-0.9,0.2
							l-1.5,0.1L31.8,327.2z M33,330.5l0.5,0c0.2,0,0.4-0.1,0.6-0.1c0.2-0.1,0.3-0.1,0.5-0.3c0.1-0.1,0.2-0.3,0.3-0.4
							c0.1-0.2,0.1-0.4,0.1-0.6c0-0.2-0.1-0.4-0.2-0.5s-0.2-0.3-0.3-0.4c-0.1-0.1-0.3-0.2-0.5-0.2c-0.2,0-0.4,0-0.6,0l-0.6,0
							L33,330.5z"/>
						<path fill="#FFFFFF" d="M41,327.5c-0.1-0.1-0.2-0.2-0.4-0.2c-0.1,0-0.3-0.1-0.5,0c-0.2,0-0.3,0.1-0.5,0.1
							c-0.1,0.1-0.3,0.2-0.4,0.3c-0.1,0.1-0.2,0.3-0.2,0.5c0,0.2-0.1,0.4,0,0.6c0,0.2,0.1,0.4,0.1,0.5c0.1,0.2,0.2,0.3,0.3,0.4
							c0.1,0.1,0.3,0.2,0.4,0.3c0.2,0.1,0.3,0.1,0.5,0.1c0.2,0,0.4-0.1,0.5-0.2c0.1-0.1,0.3-0.2,0.3-0.4l0.8,0.5
							c-0.2,0.3-0.4,0.5-0.6,0.6c-0.3,0.1-0.5,0.2-0.8,0.3c-0.3,0-0.6,0-0.9-0.1c-0.3-0.1-0.5-0.2-0.8-0.4c-0.2-0.2-0.4-0.4-0.5-0.7
							c-0.1-0.3-0.2-0.6-0.2-0.9c0-0.3,0-0.7,0.1-0.9c0.1-0.3,0.2-0.5,0.4-0.8c0.2-0.2,0.4-0.4,0.7-0.5c0.3-0.1,0.6-0.2,0.9-0.2
							c0.1,0,0.2,0,0.4,0c0.1,0,0.3,0,0.4,0.1c0.1,0,0.3,0.1,0.4,0.2c0.1,0.1,0.2,0.2,0.3,0.3L41,327.5z"/>
						<path fill="#FFFFFF" d="M42.3,326.2l2.9-0.3l0.1,0.9l-1.9,0.2l0.1,0.8l1.8-0.2l0.1,0.9l-1.8,0.2l0.1,0.9l2.1-0.2l0.1,0.9
							l-3,0.3L42.3,326.2z"/>
						<path fill="#FFFFFF" d="M46,325.9l1.6-0.1c0.2,0,0.4,0,0.6,0c0.2,0,0.4,0.1,0.5,0.2c0.2,0.1,0.3,0.2,0.4,0.4
							c0.1,0.2,0.2,0.4,0.2,0.6c0,0.3,0,0.6-0.2,0.8c-0.1,0.2-0.4,0.4-0.6,0.5l1.2,1.7l-1.1,0.1l-1-1.6l-0.5,0l0.1,1.7l-0.9,0.1
							L46,325.9z M47.1,327.6l0.5,0c0.1,0,0.2,0,0.3,0c0.1,0,0.2,0,0.2-0.1c0.1,0,0.1-0.1,0.2-0.2c0-0.1,0.1-0.2,0.1-0.3
							c0-0.1,0-0.2-0.1-0.3c0-0.1-0.1-0.1-0.2-0.1c-0.1,0-0.2,0-0.2,0c-0.1,0-0.2,0-0.3,0l-0.6,0.1L47.1,327.6z"/>
						<path fill="#FFFFFF" d="M50.7,326.4l-1.2,0.1l-0.1-0.8l3.3-0.3l0.1,0.8l-1.2,0.1l0.3,3.4l-0.9,0.1L50.7,326.4z"/>
						<path fill="#FFFFFF" d="M53.2,325.3l0.9-0.1l0.3,4.3l-0.9,0.1L53.2,325.3z"/>
						<path fill="#FFFFFF" d="M55,325.1l2.8-0.2l0.1,0.9l-1.9,0.2l0.1,0.9l1.8-0.2l0.1,0.9l-1.8,0.2l0.1,1.7l-0.9,0.1L55,325.1z"/>
						<path fill="#FFFFFF" d="M58.5,324.8l0.9-0.1l0.3,4.3l-0.9,0.1L58.5,324.8z"/>
						<path fill="#FFFFFF" d="M60.3,324.7l2.9-0.2l0.1,0.9l-1.9,0.2l0.1,0.8l1.8-0.2l0.1,0.9l-1.8,0.2l0.1,0.9l2-0.2l0.1,0.9l-3,0.3
							L60.3,324.7z"/>
						<path fill="#FFFFFF" d="M64,324.4l1.4-0.1c0.3,0,0.7,0,1,0c0.3,0.1,0.6,0.2,0.8,0.3c0.2,0.2,0.4,0.4,0.6,0.6
							c0.2,0.3,0.2,0.6,0.3,1c0,0.3,0,0.7-0.1,0.9c-0.1,0.3-0.3,0.5-0.5,0.7c-0.2,0.2-0.4,0.4-0.7,0.5c-0.3,0.1-0.6,0.2-0.9,0.2
							l-1.5,0.1L64,324.4z M65.2,327.7l0.5,0c0.2,0,0.4-0.1,0.6-0.1c0.2-0.1,0.3-0.1,0.5-0.3c0.1-0.1,0.2-0.3,0.3-0.4
							c0.1-0.2,0.1-0.4,0.1-0.6c0-0.2-0.1-0.4-0.2-0.5c-0.1-0.1-0.2-0.3-0.3-0.4c-0.1-0.1-0.3-0.2-0.5-0.2c-0.2,0-0.4,0-0.6,0
							l-0.5,0L65.2,327.7z"/>
					</g>
					<g>
						<path fill="#FFFFFF" d="M35.6,333.1l0.9-0.1c0.1,0,0.3,0,0.4,0c0.1,0,0.2,0,0.3,0.1c0.1,0.1,0.2,0.1,0.2,0.2
							c0.1,0.1,0.1,0.2,0.1,0.4c0,0.2,0,0.3-0.1,0.4c-0.1,0.1-0.1,0.2-0.2,0.3c-0.1,0.1-0.2,0.1-0.3,0.2c-0.1,0-0.2,0.1-0.3,0.1
							l-0.6,0.1l0.1,1.3l-0.3,0L35.6,333.1z M36,334.3l0.6-0.1c0.2,0,0.3-0.1,0.4-0.2c0.1-0.1,0.1-0.2,0.1-0.4
							c0-0.2-0.1-0.3-0.2-0.3c-0.1-0.1-0.3-0.1-0.4-0.1l-0.6,0.1L36,334.3z"/>
						<path fill="#FFFFFF" d="M38.6,332.8l0.3,0l1.5,2.8l-0.4,0l-0.4-0.7l-1.4,0.1l-0.2,0.7l-0.4,0L38.6,332.8z M38.8,333.2
							L38.8,333.2l-0.5,1.5l1.2-0.1L38.8,333.2z"/>
						<path fill="#FFFFFF" d="M40.6,332.6l0.7-0.1c0.1,0,0.3,0,0.4,0c0.1,0,0.3,0,0.4,0.1c0.1,0,0.2,0.1,0.3,0.2
							c0.1,0.1,0.1,0.2,0.1,0.4c0,0.2,0,0.4-0.1,0.5c-0.1,0.1-0.3,0.2-0.5,0.3l0.9,1.3l-0.4,0l-0.9-1.2l-0.4,0l0.1,1.3l-0.3,0
							L40.6,332.6z M41,333.9l0.3,0c0.1,0,0.2,0,0.3,0c0.1,0,0.2,0,0.3-0.1c0.1,0,0.1-0.1,0.2-0.2c0.1-0.1,0.1-0.2,0.1-0.3
							c0-0.1,0-0.2-0.1-0.2c0-0.1-0.1-0.1-0.2-0.1c-0.1,0-0.1,0-0.2,0c-0.1,0-0.2,0-0.3,0l-0.5,0L41,333.9z"/>
						<path fill="#FFFFFF" d="M44.9,332.6l-1,0.1l0.2,2.6l-0.3,0l-0.2-2.6l-1,0.1l0-0.3l2.2-0.2L44.9,332.6z"/>
						<path fill="#FFFFFF" d="M45.3,332.2l0.4,0l1.9,2.3l0,0l-0.2-2.4l0.3,0l0.2,2.9l-0.4,0l-1.9-2.3l0,0l0.2,2.4l-0.3,0L45.3,332.2
							z"/>
						<path fill="#FFFFFF" d="M48.5,331.9l1.8-0.2l0,0.3l-1.5,0.1l0.1,0.9l1.4-0.1l0,0.3l-1.4,0.1l0.1,1l1.5-0.1l0,0.3l-1.9,0.2
							L48.5,331.9z"/>
						<path fill="#FFFFFF" d="M50.9,331.7l0.7-0.1c0.1,0,0.3,0,0.4,0c0.1,0,0.3,0,0.4,0.1c0.1,0,0.2,0.1,0.3,0.2
							c0.1,0.1,0.1,0.2,0.1,0.4c0,0.2,0,0.4-0.1,0.5c-0.1,0.1-0.3,0.2-0.5,0.3l0.9,1.3l-0.4,0l-0.9-1.2l-0.4,0l0.1,1.3l-0.3,0
							L50.9,331.7z M51.3,333l0.3,0c0.1,0,0.2,0,0.3,0c0.1,0,0.2,0,0.3-0.1c0.1,0,0.1-0.1,0.2-0.2c0.1-0.1,0.1-0.2,0.1-0.3
							c0-0.1,0-0.2-0.1-0.2c0-0.1-0.1-0.1-0.2-0.1c-0.1,0-0.1,0-0.2,0c-0.1,0-0.2,0-0.3,0l-0.5,0L51.3,333z"/>
					</g>
					<polygon fill="#FFFFFF" points="33.6,335.4 19.5,336.4 19.4,335.4 33.5,334.4 					"/>
					<polygon fill="#FFFFFF" points="68.8,332.3 53.7,333.3 53.6,332.4 68.7,331.3 					"/>
					<g>
						<g>
							<polygon fill="#BC872C" points="33.2,311.7 33.2,311.7 31.8,309 31.1,309.1 31.4,312.7 31.9,312.7 31.6,309.7 31.6,309.7 
								33.1,312.6 33.4,312.6 34.4,309.5 34.4,309.5 34.6,312.4 35.1,312.4 34.8,308.8 34.1,308.8 							"/>
							<path fill="#BC872C" d="M36.7,309.8c-0.7,0.1-1.2,0.7-1.1,1.4c0.1,0.7,0.6,1.2,1.3,1.2c0.5,0,0.8-0.2,1-0.6l-0.4-0.2
								c-0.2,0.2-0.4,0.4-0.6,0.4c-0.4,0-0.8-0.2-0.9-0.6l1.9-0.2l0-0.2C37.9,310.3,37.5,309.7,36.7,309.8z M36,310.9
								c0-0.3,0.2-0.7,0.7-0.8c0.5,0,0.7,0.2,0.8,0.6L36,310.9z"/>
							<path fill="#BC872C" d="M40.3,309.9L40.3,309.9c-0.2-0.2-0.5-0.4-0.9-0.3c-0.7,0.1-1.2,0.7-1.1,1.4c0.1,0.7,0.6,1.2,1.3,1.1
								c0.3,0,0.8-0.1,0.8-0.1l0,0l0.5,0l-0.3-3.6l-0.5,0L40.3,309.9z M39.6,311.7c-0.5,0-0.8-0.3-0.9-0.8c0-0.5,0.2-0.9,0.7-0.9
								c0.5,0,0.8,0.3,0.9,0.8C40.4,311.2,40.1,311.6,39.6,311.7z"/>
							
								<rect x="41.4" y="309.4" transform="matrix(-0.9965 8.415501e-02 -8.415501e-02 -0.9965 109.2477 616.6656)" fill="#BC872C" width="0.5" height="2.4"/>
							<path fill="#BC872C" d="M43.3,309.2c-0.3,0-0.7,0.2-0.9,0.4l0.3,0.3c0.2-0.1,0.3-0.3,0.7-0.3c0.4,0,0.6,0.2,0.6,0.5l0,0.1
								l-0.3,0c-0.7,0.1-1.3,0.3-1.3,1c0,0.5,0.4,0.6,0.9,0.6c0.4,0,0.8-0.1,0.8-0.1l0,0l0.4,0c0,0,0-0.3,0-0.4l-0.1-1.2
								C44.4,309.5,44,309.2,43.3,309.2z M44,310.6c0,0.3-0.1,0.7-0.6,0.8c-0.3,0-0.5-0.1-0.5-0.4c0-0.4,0.5-0.5,0.9-0.5l0.2,0
								L44,310.6z"/>
							<path fill="#BC872C" d="M50.1,308.6c-0.3,0-0.7,0.2-0.9,0.4l0.3,0.3c0.2-0.1,0.3-0.3,0.7-0.3c0.4,0,0.6,0.2,0.6,0.5l0,0.1
								l-0.3,0c-0.7,0.1-1.3,0.3-1.3,0.9c0,0.5,0.4,0.6,0.9,0.6c0.4,0,0.8-0.1,0.8-0.1l0,0l0.4,0c0,0,0-0.3,0-0.4l-0.1-1.2
								C51.2,308.9,50.8,308.6,50.1,308.6z M50.8,310.1c0,0.3-0.1,0.7-0.6,0.8c-0.3,0-0.5-0.1-0.5-0.4c0-0.4,0.5-0.5,0.9-0.5l0.2,0
								L50.8,310.1z"/>
							<polygon fill="#BC872C" points="47,310.5 46.9,310.5 45.6,307.9 44.8,307.9 45.1,311.6 45.6,311.5 45.4,308.5 45.4,308.5 
								46.8,311.4 47.2,311.4 48.1,308.3 48.2,308.3 48.4,311.3 48.9,311.2 48.6,307.6 47.9,307.7 							"/>
							<path fill="#BC872C" d="M52.6,310l-0.1-1.1l0.7-0.1l0-0.4l-0.7,0.1l-0.1-0.7l-0.5,0l0.1,0.7l-0.5,0l0,0.4l0.5,0l0.1,1.3
								c0,0.4,0.1,0.8,0.8,0.8c0.1,0,0.3,0,0.4-0.1l0-0.4c-0.1,0.1-0.2,0.1-0.3,0.1C52.6,310.6,52.6,310.3,52.6,310z"/>
							<path fill="#BC872C" d="M54.8,308.2c-0.4,0-0.8,0.1-0.8,0.1l-0.1-1.1l-0.5,0l0.3,3.6l0.5,0l-0.1-1.2c0-0.6,0.2-0.8,0.6-0.9
								c0.3,0,0.6,0.1,0.6,0.6l0.1,1.4l0.5,0l-0.1-1.6C55.7,308.5,55.3,308.2,54.8,308.2z"/>
							
								<rect x="41.2" y="308.6" transform="matrix(-0.9965 8.357412e-02 -8.357412e-02 -0.9965 108.6188 613.0558)" fill="#BC872C" width="0.5" height="0.5"/>
						</g>
					</g>
					<g>
						<path fill="#BC872C" d="M31.5,317c0-0.4,0-0.8,0.1-1.2c0.1-0.4,0.3-0.7,0.6-0.9c0.2-0.3,0.5-0.5,0.9-0.6
							c0.4-0.2,0.7-0.3,1.1-0.3c0.4,0,0.8,0,1.2,0.1c0.4,0.1,0.7,0.3,1,0.5c0.3,0.2,0.5,0.5,0.7,0.8c0.2,0.3,0.3,0.7,0.3,1.1
							s0,0.8-0.1,1.2c-0.1,0.4-0.3,0.7-0.6,0.9c-0.2,0.3-0.5,0.5-0.9,0.6c-0.4,0.2-0.7,0.3-1.1,0.3c-0.4,0-0.8,0-1.2-0.1
							c-0.4-0.1-0.7-0.3-1-0.5c-0.3-0.2-0.5-0.5-0.7-0.8C31.6,317.8,31.5,317.5,31.5,317z M33.1,316.9c0,0.4,0.2,0.7,0.4,1
							c0.3,0.2,0.6,0.3,1,0.3c0.4,0,0.7-0.2,0.9-0.5c0.2-0.3,0.3-0.6,0.3-1c0-0.4-0.2-0.7-0.4-1c-0.3-0.2-0.6-0.3-1-0.3
							c-0.4,0-0.7,0.2-0.9,0.5C33.2,316.1,33.1,316.5,33.1,316.9z"/>
						<path fill="#BC872C" d="M38.3,313.8l1.5-0.1l0.1,0.7l0,0c0.1-0.1,0.1-0.2,0.2-0.3c0.1-0.1,0.2-0.2,0.4-0.3
							c0.1-0.1,0.3-0.2,0.4-0.2c0.2-0.1,0.3-0.1,0.5-0.1c0.4,0,0.8,0,1.1,0.1c0.3,0.1,0.6,0.3,0.9,0.5c0.3,0.2,0.4,0.5,0.6,0.8
							c0.2,0.3,0.2,0.7,0.3,1.1c0,0.4,0,0.7-0.1,1.1c-0.1,0.4-0.2,0.7-0.4,0.9c-0.2,0.3-0.4,0.5-0.7,0.7c-0.3,0.2-0.6,0.3-1,0.3
							c-0.3,0-0.7,0-1-0.1c-0.3-0.1-0.6-0.2-0.8-0.5l0,0l0.3,3.1l-1.6,0.1L38.3,313.8z M40,316.3c0,0.4,0.2,0.7,0.4,1
							c0.2,0.2,0.6,0.3,1,0.3c0.4,0,0.7-0.2,0.9-0.5c0.2-0.3,0.3-0.6,0.3-1c0-0.4-0.2-0.7-0.4-1c-0.2-0.2-0.6-0.3-1-0.3
							c-0.4,0-0.7,0.2-0.9,0.5C40.1,315.6,40,315.9,40,316.3z"/>
						<path fill="#BC872C" d="M50.4,317.2c-0.2,0.4-0.5,0.6-0.9,0.9c-0.4,0.2-0.8,0.3-1.2,0.4c-0.4,0-0.8,0-1.2-0.1
							c-0.4-0.1-0.7-0.3-1-0.5c-0.3-0.2-0.5-0.5-0.7-0.8c-0.2-0.3-0.3-0.7-0.3-1.1c0-0.4,0-0.8,0.1-1.2c0.1-0.4,0.3-0.7,0.6-0.9
							c0.2-0.3,0.5-0.5,0.9-0.6c0.3-0.2,0.7-0.3,1.1-0.3c0.4,0,0.7,0,1,0.1c0.3,0.1,0.6,0.3,0.8,0.5c0.2,0.2,0.4,0.5,0.6,0.8
							c0.1,0.3,0.2,0.7,0.3,1.1l0,0.5l-3.8,0.3c0.1,0.3,0.3,0.5,0.5,0.7c0.2,0.2,0.5,0.2,0.8,0.2c0.3,0,0.5-0.1,0.7-0.2
							c0.2-0.1,0.3-0.3,0.4-0.5L50.4,317.2z M48.8,314.9c0-0.3-0.1-0.5-0.3-0.7c-0.2-0.2-0.5-0.3-0.8-0.2c-0.2,0-0.3,0.1-0.5,0.1
							c-0.1,0.1-0.2,0.2-0.3,0.3c-0.1,0.1-0.2,0.2-0.2,0.3c0,0.1-0.1,0.3-0.1,0.4L48.8,314.9z"/>
						<path fill="#BC872C" d="M51.3,312.6l1.6-0.1l0.1,0.7l0,0c0-0.1,0.1-0.2,0.2-0.3c0.1-0.1,0.2-0.2,0.3-0.3
							c0.1-0.1,0.3-0.2,0.4-0.2c0.2-0.1,0.3-0.1,0.5-0.1c0.4,0,0.8,0,1,0.1c0.3,0.1,0.5,0.3,0.6,0.5c0.2,0.2,0.3,0.5,0.4,0.8
							c0.1,0.3,0.1,0.6,0.2,1l0.2,2.9l-1.6,0.1l-0.2-2.6c0-0.2,0-0.3-0.1-0.5c0-0.2-0.1-0.3-0.1-0.4c-0.1-0.1-0.2-0.2-0.3-0.3
							c-0.1-0.1-0.3-0.1-0.5-0.1c-0.2,0-0.4,0.1-0.5,0.2c-0.1,0.1-0.2,0.2-0.3,0.3c-0.1,0.1-0.1,0.3-0.1,0.4c0,0.2,0,0.3,0,0.5
							l0.2,2.7l-1.6,0.1L51.3,312.6z"/>
					</g>
				</g>
				<g>
					<polygon fill="#F42D67" points="86,265.8 62.8,267.6 24.2,270.6 1.1,272.4 6.4,265.5 0,259.3 85,253 80.2,259.9 					"/>
					<polygon fill="#A3BFC3" stroke="#FFFFFF" stroke-miterlimit="10" points="40.6,224.4 44,226.5 47.5,224.8 50.2,227.7 54,227 
						56,230.4 59.9,230.6 61,234.4 64.7,235.7 64.8,239.6 68,241.7 67.2,245.5 69.9,248.4 68.1,251.9 70,255.3 67.4,258.2 68.4,262 
						65.2,264.2 65.2,268.1 61.6,269.4 60.7,273.2 56.8,273.6 55,277 51.1,276.4 48.5,279.2 44.9,277.7 41.6,279.8 38.5,277.4 
						34.8,278.6 32.4,275.5 28.5,275.7 27,272.1 23.1,271.4 22.5,267.5 18.9,265.8 19.3,261.8 16.2,259.3 17.5,255.6 15.2,252.4 
						17.4,249.1 16,245.4 18.9,242.8 18.4,238.9 21.9,237.2 22.4,233.2 26.2,232.4 27.6,228.8 31.5,228.9 33.8,225.8 37.6,226.9 
											"/>
					<path fill="none" stroke="#FFFFFF" d="M63.9,250.3c-0.9-11.8-11.2-20.8-22.9-20c-11.8,0.8-20.6,11.2-19.6,23.1
						c1,11.9,11.3,20.8,23.1,19.9C56.1,272.4,64.8,262.1,63.9,250.3z"/>
					<path fill="#D3E3E4" d="M62.7,250.3c-0.9-11.2-10.6-19.6-21.6-18.8c-11.1,0.8-19.4,10.5-18.5,21.8
						c0.9,11.2,10.7,19.6,21.8,18.8C55.4,271.2,63.6,261.5,62.7,250.3z"/>
					<g>
						<polygon fill="#F4256A" points="76.4,264.1 9.4,269.2 8.3,255.6 75.3,250.7 						"/>
						<polygon fill="#D8235F" points="10.4,269 23.2,268 23.2,270 						"/>
						<polygon fill="#D8235F" points="76.6,264.1 65,265 64.9,266.8 						"/>
					</g>
					<g>
						<path fill="#FFFFFF" d="M13.3,258.5l1.5-0.1c0.2,0,0.4,0,0.6,0c0.2,0,0.4,0.1,0.5,0.2c0.1,0.1,0.3,0.2,0.4,0.3
							c0.1,0.2,0.1,0.3,0.2,0.6c0,0.2,0,0.4-0.1,0.6c-0.1,0.2-0.2,0.3-0.3,0.4c-0.1,0.1-0.3,0.2-0.5,0.2c-0.2,0.1-0.4,0.1-0.6,0.1
							l-0.6,0l0.1,1.6l-0.9,0.1L13.3,258.5z M14.4,260.2l0.6,0c0.1,0,0.2,0,0.2,0c0.1,0,0.1-0.1,0.2-0.1c0.1,0,0.1-0.1,0.1-0.2
							c0-0.1,0-0.1,0-0.2c0-0.1,0-0.2-0.1-0.2c-0.1-0.1-0.1-0.1-0.2-0.1c-0.1,0-0.2,0-0.3,0c-0.1,0-0.2,0-0.3,0l-0.5,0L14.4,260.2z"
							/>
						<path fill="#FFFFFF" d="M16.9,258.3l0.9-0.1l0.3,3.2l1.6-0.1l0.1,0.8l-2.5,0.2L16.9,258.3z"/>
						<path fill="#FFFFFF" d="M21.2,258l0.7-0.1l2.1,3.9l-1,0.1l-0.4-0.8l-1.5,0.1l-0.3,0.9l-1,0.1L21.2,258z M21.6,259.1l-0.4,1.3
							l1-0.1L21.6,259.1z"/>
						<path fill="#FFFFFF" d="M24.4,258.5l-1.1,0.1l-0.1-0.8l3.1-0.2l0.1,0.8l-1.1,0.1l0.3,3.2l-0.9,0.1L24.4,258.5z"/>
						<path fill="#FFFFFF" d="M26.7,257.5l0.9-0.1l0.3,4l-0.9,0.1L26.7,257.5z"/>
						<path fill="#FFFFFF" d="M28.4,257.4l1.2-0.1l1.9,2.6l0,0l-0.2-2.8l0.9-0.1l0.3,4l-1.1,0.1l-2-2.7l0,0l0.2,2.8l-0.9,0.1
							L28.4,257.4z"/>
						<path fill="#FFFFFF" d="M36.5,259.3c0,0.2,0,0.5-0.1,0.7c-0.1,0.2-0.1,0.4-0.3,0.5c-0.1,0.2-0.3,0.3-0.5,0.4
							c-0.2,0.1-0.4,0.2-0.7,0.2c-0.3,0-0.5,0-0.7-0.1c-0.2-0.1-0.4-0.2-0.6-0.3c-0.2-0.1-0.3-0.3-0.4-0.5c-0.1-0.2-0.1-0.4-0.2-0.6
							l-0.2-2.5l0.9-0.1l0.2,2.4c0,0.1,0,0.2,0.1,0.3c0,0.1,0.1,0.2,0.2,0.3c0.1,0.1,0.2,0.1,0.3,0.2c0.1,0,0.2,0,0.3,0
							c0.1,0,0.2,0,0.3-0.1c0.1-0.1,0.2-0.1,0.2-0.2c0.1-0.1,0.1-0.2,0.1-0.3c0-0.1,0-0.2,0-0.3l-0.2-2.4l0.9-0.1L36.5,259.3z"/>
						<path fill="#FFFFFF" d="M37.1,256.8l1.3-0.1l1.1,2.5l0,0l0.7-2.7l1.3-0.1l0.3,4l-0.9,0.1l-0.2-3.1l0,0l-0.8,3.1l-0.7,0l-1.2-3
							l0,0l0.2,3.1l-0.9,0.1L37.1,256.8z"/>
						<path fill="#FFFFFF" d="M46.7,257.1c-0.1-0.1-0.2-0.2-0.3-0.2c-0.1,0-0.3-0.1-0.4-0.1c-0.2,0-0.3,0.1-0.4,0.1
							c-0.1,0.1-0.2,0.2-0.3,0.3c-0.1,0.1-0.2,0.3-0.2,0.4c0,0.2-0.1,0.3,0,0.5c0,0.2,0.1,0.4,0.1,0.5c0.1,0.2,0.2,0.3,0.3,0.4
							c0.1,0.1,0.2,0.2,0.4,0.2c0.1,0.1,0.3,0.1,0.4,0.1c0.2,0,0.3-0.1,0.5-0.1c0.1-0.1,0.2-0.2,0.3-0.3l0.8,0.5
							c-0.1,0.2-0.3,0.4-0.6,0.6c-0.2,0.1-0.5,0.2-0.8,0.2c-0.3,0-0.6,0-0.9-0.1c-0.3-0.1-0.5-0.2-0.7-0.4c-0.2-0.2-0.4-0.4-0.5-0.6
							c-0.1-0.3-0.2-0.5-0.2-0.9c0-0.3,0-0.6,0.1-0.9c0.1-0.3,0.2-0.5,0.4-0.7c0.2-0.2,0.4-0.4,0.6-0.5c0.3-0.1,0.5-0.2,0.8-0.2
							c0.1,0,0.2,0,0.3,0c0.1,0,0.2,0,0.4,0.1c0.1,0,0.2,0.1,0.4,0.2c0.1,0.1,0.2,0.2,0.3,0.3L46.7,257.1z"/>
						<path fill="#FFFFFF" d="M47.9,256l2.7-0.2l0.1,0.8l-1.8,0.1l0.1,0.7l1.7-0.1l0.1,0.8l-1.7,0.1l0.1,0.8l1.9-0.1l0.1,0.8
							l-2.8,0.2L47.9,256z"/>
						<path fill="#FFFFFF" d="M51.3,255.7l1.5-0.1c0.2,0,0.4,0,0.6,0c0.2,0,0.3,0.1,0.5,0.2c0.1,0.1,0.3,0.2,0.4,0.3
							c0.1,0.1,0.1,0.3,0.2,0.6c0,0.3,0,0.5-0.2,0.7c-0.1,0.2-0.3,0.3-0.6,0.4l1.1,1.6l-1,0.1l-0.9-1.5l-0.4,0l0.1,1.6l-0.9,0.1
							L51.3,255.7z M52.3,257.3l0.5,0c0.1,0,0.2,0,0.2,0c0.1,0,0.2,0,0.2-0.1c0.1,0,0.1-0.1,0.2-0.1c0-0.1,0.1-0.1,0-0.3
							c0-0.1,0-0.2-0.1-0.2c0-0.1-0.1-0.1-0.2-0.1c-0.1,0-0.1,0-0.2,0c-0.1,0-0.2,0-0.2,0l-0.6,0L52.3,257.3z"/>
						<path fill="#FFFFFF" d="M55.6,256.2l-1.1,0.1l-0.1-0.8l3.1-0.2l0.1,0.8l-1.1,0.1l0.3,3.2l-0.9,0.1L55.6,256.2z"/>
						<path fill="#FFFFFF" d="M58,255.2l0.9-0.1l0.3,4l-0.9,0.1L58,255.2z"/>
						<path fill="#FFFFFF" d="M59.7,255.1l2.6-0.2l0.1,0.8l-1.8,0.1l0.1,0.8l1.6-0.1l0.1,0.8l-1.6,0.1l0.1,1.5l-0.9,0.1L59.7,255.1z
							"/>
						<path fill="#FFFFFF" d="M62.9,254.9l0.9-0.1l0.3,4l-0.9,0.1L62.9,254.9z"/>
						<path fill="#FFFFFF" d="M64.6,254.7l2.7-0.2l0.1,0.8l-1.8,0.1l0.1,0.7l1.7-0.1l0.1,0.8l-1.7,0.1l0.1,0.8l1.9-0.1l0.1,0.8
							l-2.8,0.2L64.6,254.7z"/>
						<path fill="#FFFFFF" d="M68,254.5l1.3-0.1c0.3,0,0.6,0,0.9,0c0.3,0.1,0.5,0.1,0.8,0.3c0.2,0.1,0.4,0.3,0.5,0.6
							c0.1,0.2,0.2,0.5,0.3,0.9c0,0.3,0,0.6-0.1,0.9c-0.1,0.3-0.2,0.5-0.4,0.7c-0.2,0.2-0.4,0.3-0.7,0.4c-0.3,0.1-0.5,0.2-0.8,0.2
							l-1.4,0.1L68,254.5z M69.1,257.6l0.4,0c0.2,0,0.4,0,0.5-0.1c0.2-0.1,0.3-0.1,0.4-0.2c0.1-0.1,0.2-0.2,0.3-0.4
							c0.1-0.2,0.1-0.4,0.1-0.6c0-0.2-0.1-0.4-0.1-0.5c-0.1-0.1-0.2-0.2-0.3-0.3c-0.1-0.1-0.3-0.1-0.4-0.2c-0.2,0-0.3,0-0.5,0
							l-0.5,0L69.1,257.6z"/>
					</g>
					<g>
						<path fill="#FFFFFF" d="M34,262.5l0.8-0.1c0.1,0,0.3,0,0.4,0c0.1,0,0.2,0.1,0.3,0.1c0.1,0.1,0.2,0.1,0.2,0.2
							c0.1,0.1,0.1,0.2,0.1,0.4c0,0.2,0,0.3-0.1,0.4c-0.1,0.1-0.1,0.2-0.2,0.3c-0.1,0.1-0.2,0.1-0.3,0.2c-0.1,0-0.2,0.1-0.3,0.1
							l-0.6,0l0.1,1.3l-0.3,0L34,262.5z M34.5,263.7l0.6,0c0.2,0,0.3-0.1,0.4-0.1c0.1-0.1,0.1-0.2,0.1-0.4c0-0.2-0.1-0.3-0.2-0.3
							c-0.1-0.1-0.3-0.1-0.4-0.1l-0.6,0L34.5,263.7z"/>
						<path fill="#FFFFFF" d="M37,262.2l0.3,0l1.5,2.8l-0.4,0l-0.3-0.7l-1.4,0.1l-0.2,0.7l-0.4,0L37,262.2z M37.2,262.7L37.2,262.7
							l-0.5,1.5l1.2-0.1L37.2,262.7z"/>
						<path fill="#FFFFFF" d="M39,262.1l0.7-0.1c0.1,0,0.3,0,0.4,0c0.1,0,0.3,0,0.4,0.1c0.1,0,0.2,0.1,0.3,0.2
							c0.1,0.1,0.1,0.2,0.1,0.4c0,0.2,0,0.4-0.1,0.5c-0.1,0.1-0.3,0.2-0.5,0.3l0.9,1.3l-0.4,0l-0.9-1.2l-0.4,0l0.1,1.3l-0.3,0
							L39,262.1z M39.4,263.3l0.3,0c0.1,0,0.2,0,0.3,0c0.1,0,0.2,0,0.3-0.1c0.1,0,0.1-0.1,0.2-0.2c0-0.1,0.1-0.2,0.1-0.3
							c0-0.1,0-0.2-0.1-0.2c0-0.1-0.1-0.1-0.2-0.1c-0.1,0-0.1,0-0.2,0c-0.1,0-0.2,0-0.2,0l-0.5,0L39.4,263.3z"/>
						<path fill="#FFFFFF" d="M43.3,262.1l-0.9,0.1l0.2,2.6l-0.3,0l-0.2-2.6l-0.9,0.1l0-0.3l2.2-0.2L43.3,262.1z"/>
						<path fill="#FFFFFF" d="M43.7,261.7l0.4,0l1.8,2.3l0,0l-0.2-2.4l0.3,0l0.2,2.9l-0.4,0l-1.8-2.3l0,0l0.2,2.4l-0.3,0L43.7,261.7
							z"/>
						<path fill="#FFFFFF" d="M46.8,261.5l1.8-0.1l0,0.3l-1.5,0.1l0.1,0.9l1.4-0.1l0,0.3l-1.4,0.1l0.1,1l1.5-0.1l0,0.3l-1.9,0.1
							L46.8,261.5z"/>
						<path fill="#FFFFFF" d="M49.2,261.3l0.7-0.1c0.1,0,0.3,0,0.4,0c0.1,0,0.3,0,0.4,0.1c0.1,0,0.2,0.1,0.3,0.2
							c0.1,0.1,0.1,0.2,0.1,0.4c0,0.2,0,0.4-0.1,0.5c-0.1,0.1-0.3,0.2-0.5,0.3l0.9,1.3l-0.4,0l-0.9-1.2l-0.4,0l0.1,1.3l-0.3,0
							L49.2,261.3z M49.6,262.6l0.3,0c0.1,0,0.2,0,0.3,0c0.1,0,0.2,0,0.3-0.1c0.1,0,0.1-0.1,0.2-0.2c0-0.1,0.1-0.2,0.1-0.3
							c0-0.1,0-0.2-0.1-0.2c0-0.1-0.1-0.1-0.2-0.1c-0.1,0-0.1,0-0.2,0c-0.1,0-0.2,0-0.2,0l-0.5,0L49.6,262.6z"/>
					</g>
					<polygon fill="#FFFFFF" points="31.9,264.4 17.8,265.5 17.7,264.9 31.8,263.8 					"/>
					<polygon fill="#FFFFFF" points="66.5,261.8 52.6,262.8 52.6,262.2 66.5,261.2 					"/>
					<g>
						<g>
							<polygon fill="#A3BFC3" points="31.1,241.8 31.1,241.8 29.8,239.1 29,239.2 29.3,242.8 29.8,242.7 29.6,239.8 29.6,239.8 
								31,242.7 31.4,242.6 32.3,239.6 32.3,239.6 32.6,242.6 33.1,242.5 32.8,238.9 32,239 							"/>
							<path fill="#A3BFC3" d="M34.6,239.9c-0.7,0.1-1.2,0.6-1.1,1.4c0.1,0.7,0.6,1.2,1.3,1.2c0.5,0,0.8-0.2,1-0.6l-0.4-0.2
								c-0.2,0.2-0.3,0.4-0.6,0.4c-0.4,0-0.8-0.2-0.9-0.6l1.9-0.1l0-0.2C35.8,240.5,35.4,239.9,34.6,239.9z M33.9,241
								c0-0.3,0.2-0.7,0.7-0.8c0.5,0,0.7,0.3,0.7,0.7L33.9,241z"/>
							<path fill="#A3BFC3" d="M38.2,240.1L38.2,240.1c-0.2-0.2-0.5-0.4-0.9-0.3c-0.7,0.1-1.2,0.6-1.1,1.4c0.1,0.7,0.6,1.2,1.3,1.1
								c0.3,0,0.8-0.1,0.8-0.1l0,0l0.5,0l-0.3-3.6l-0.5,0L38.2,240.1z M37.5,241.8c-0.5,0-0.8-0.3-0.9-0.8c0-0.5,0.2-0.9,0.7-0.9
								c0.5,0,0.8,0.3,0.9,0.8C38.3,241.4,38,241.8,37.5,241.8z"/>
							<polygon fill="#A3BFC3" points="39.4,242.1 39.8,242 39.6,239.6 39.2,239.7 							"/>
							<path fill="#A3BFC3" d="M41.2,239.5c-0.3,0-0.7,0.2-0.9,0.4l0.3,0.3c0.2-0.1,0.3-0.3,0.7-0.3c0.4,0,0.6,0.2,0.6,0.5l0,0.1
								l-0.3,0c-0.7,0.1-1.3,0.3-1.2,0.9c0,0.5,0.4,0.6,0.9,0.6c0.4,0,0.8-0.1,0.8-0.1l0,0l0.4,0c0,0,0-0.3,0-0.4l-0.1-1.2
								C42.2,239.8,41.9,239.4,41.2,239.5z M41.9,240.9c0,0.3-0.1,0.7-0.6,0.8c-0.3,0-0.5-0.1-0.5-0.4c0-0.4,0.5-0.5,0.9-0.5l0.2,0
								L41.9,240.9z"/>
							<path fill="#A3BFC3" d="M47.9,239c-0.3,0-0.7,0.2-0.9,0.4l0.3,0.3c0.2-0.1,0.3-0.3,0.7-0.3c0.4,0,0.6,0.2,0.6,0.5l0,0.1
								l-0.3,0c-0.7,0.1-1.3,0.3-1.2,0.9c0,0.5,0.4,0.6,0.9,0.6c0.4,0,0.8-0.1,0.8-0.1l0,0l0.4,0c0,0,0-0.3,0-0.4l-0.1-1.2
								C49,239.3,48.6,238.9,47.9,239z M48.6,240.4c0,0.3-0.1,0.7-0.6,0.7c-0.3,0-0.5-0.1-0.5-0.4c0-0.4,0.5-0.5,0.9-0.5l0.2,0
								L48.6,240.4z"/>
							<polygon fill="#A3BFC3" points="44.8,240.8 44.8,240.8 43.4,238.2 42.7,238.2 43,241.8 43.5,241.8 43.2,238.8 43.2,238.8 
								44.7,241.7 45,241.7 46,238.6 46,238.6 46.2,241.6 46.7,241.5 46.4,237.9 45.7,238 							"/>
							<path fill="#A3BFC3" d="M50.4,240.4l-0.1-1.1l0.6,0l0-0.4l-0.6,0l-0.1-0.7l-0.5,0l0.1,0.7l-0.5,0l0,0.4l0.5,0l0.1,1.3
								c0,0.4,0.1,0.8,0.8,0.8c0.1,0,0.3,0,0.4-0.1l0-0.4c-0.1,0.1-0.2,0.1-0.3,0.1C50.4,240.9,50.4,240.6,50.4,240.4z"/>
							<path fill="#A3BFC3" d="M52.6,238.6c-0.4,0-0.8,0.1-0.8,0.1l-0.1-1.1l-0.5,0l0.3,3.6l0.5,0l-0.1-1.2c0-0.6,0.2-0.8,0.6-0.8
								c0.3,0,0.6,0.1,0.6,0.6l0.1,1.4l0.5,0l-0.1-1.5C53.5,238.9,53.1,238.6,52.6,238.6z"/>
							<polygon fill="#A3BFC3" points="39.1,239.3 39.6,239.2 39.6,238.8 39.1,238.8 							"/>
						</g>
					</g>
					<g>
						<path fill="#A3BFC3" d="M29.4,247.1c0-0.4,0-0.8,0.1-1.2c0.1-0.4,0.3-0.7,0.6-0.9c0.2-0.3,0.5-0.5,0.9-0.6
							c0.3-0.2,0.7-0.3,1.1-0.3c0.4,0,0.8,0,1.2,0.1c0.4,0.1,0.7,0.3,1,0.5c0.3,0.2,0.5,0.5,0.7,0.8c0.2,0.3,0.3,0.7,0.3,1.1
							c0,0.4,0,0.8-0.1,1.2c-0.1,0.4-0.3,0.7-0.6,0.9c-0.2,0.3-0.5,0.5-0.9,0.6c-0.3,0.2-0.7,0.3-1.1,0.3c-0.4,0-0.8,0-1.2-0.1
							c-0.4-0.1-0.7-0.3-1-0.5c-0.3-0.2-0.5-0.5-0.7-0.8C29.5,247.9,29.4,247.5,29.4,247.1z M31,246.9c0,0.4,0.2,0.7,0.4,1
							c0.2,0.2,0.6,0.3,1,0.3c0.4,0,0.7-0.2,0.9-0.4c0.2-0.3,0.3-0.6,0.3-1c0-0.4-0.2-0.7-0.4-1c-0.2-0.2-0.6-0.3-1-0.3
							c-0.4,0-0.7,0.2-0.9,0.4C31.1,246.2,31,246.5,31,246.9z"/>
						<path fill="#A3BFC3" d="M36.2,243.9l1.5-0.1l0.1,0.7l0,0c0.1-0.1,0.1-0.2,0.2-0.3c0.1-0.1,0.2-0.2,0.3-0.3
							c0.1-0.1,0.3-0.2,0.4-0.2c0.2-0.1,0.3-0.1,0.5-0.1c0.4,0,0.7,0,1.1,0.1c0.3,0.1,0.6,0.3,0.9,0.5c0.2,0.2,0.4,0.5,0.6,0.8
							c0.2,0.3,0.2,0.7,0.3,1.1c0,0.4,0,0.7-0.1,1.1c-0.1,0.3-0.2,0.7-0.4,0.9c-0.2,0.3-0.4,0.5-0.7,0.7c-0.3,0.2-0.6,0.3-1,0.3
							c-0.3,0-0.7,0-1-0.1c-0.3-0.1-0.6-0.2-0.8-0.5l0,0l0.2,3.1l-1.6,0.1L36.2,243.9z M37.9,246.4c0,0.4,0.2,0.7,0.4,1
							c0.2,0.2,0.6,0.3,1,0.3c0.4,0,0.7-0.2,0.9-0.4c0.2-0.3,0.3-0.6,0.3-1c0-0.4-0.2-0.7-0.4-1c-0.2-0.2-0.6-0.3-1-0.3
							c-0.4,0-0.7,0.2-0.9,0.4C37.9,245.7,37.9,246,37.9,246.4z"/>
						<path fill="#A3BFC3" d="M48.2,247.5c-0.2,0.4-0.5,0.6-0.9,0.8c-0.4,0.2-0.8,0.3-1.2,0.4c-0.4,0-0.8,0-1.2-0.1
							c-0.4-0.1-0.7-0.3-1-0.5c-0.3-0.2-0.5-0.5-0.7-0.8c-0.2-0.3-0.3-0.7-0.3-1.1c0-0.4,0-0.8,0.1-1.2c0.1-0.4,0.3-0.7,0.6-0.9
							c0.2-0.3,0.5-0.5,0.9-0.6c0.3-0.2,0.7-0.3,1.1-0.3c0.4,0,0.7,0,1,0.1c0.3,0.1,0.6,0.3,0.8,0.5c0.2,0.2,0.4,0.5,0.6,0.8
							c0.1,0.3,0.2,0.7,0.3,1.1l0,0.5l-3.8,0.3c0.1,0.3,0.3,0.5,0.5,0.7c0.2,0.2,0.5,0.2,0.8,0.2c0.3,0,0.5-0.1,0.7-0.2
							c0.2-0.1,0.3-0.3,0.4-0.5L48.2,247.5z M46.6,245.2c0-0.3-0.1-0.5-0.3-0.7c-0.2-0.2-0.5-0.3-0.7-0.2c-0.2,0-0.3,0.1-0.5,0.1
							c-0.1,0.1-0.2,0.2-0.3,0.2c-0.1,0.1-0.2,0.2-0.2,0.3c0,0.1-0.1,0.3-0.1,0.4L46.6,245.2z"/>
						<path fill="#A3BFC3" d="M49.1,243l1.6-0.1l0.1,0.7l0,0c0-0.1,0.1-0.2,0.2-0.3c0.1-0.1,0.2-0.2,0.3-0.3
							c0.1-0.1,0.3-0.2,0.4-0.2c0.2-0.1,0.3-0.1,0.5-0.1c0.4,0,0.7,0,1,0.1c0.3,0.1,0.5,0.3,0.6,0.5c0.2,0.2,0.3,0.5,0.4,0.8
							c0.1,0.3,0.1,0.6,0.2,1l0.2,2.9l-1.6,0.1l-0.2-2.6c0-0.2,0-0.3-0.1-0.5c0-0.2-0.1-0.3-0.1-0.4c-0.1-0.1-0.2-0.2-0.3-0.3
							c-0.1-0.1-0.3-0.1-0.5-0.1c-0.2,0-0.4,0.1-0.5,0.2c-0.1,0.1-0.2,0.2-0.3,0.3c-0.1,0.1-0.1,0.3-0.1,0.4c0,0.2,0,0.3,0,0.5
							l0.2,2.6l-1.6,0.1L49.1,243z"/>
					</g>
				</g>
				<g>
					<polygon fill="#F42D67" points="87.1,406.6 63.8,409.1 24.9,413.1 1.7,415.6 7,408.6 0.6,402.6 86.1,393.9 81.3,400.9 					"/>
					<polygon fill="#D1D2D4" stroke="#FFFFFF" stroke-miterlimit="10" points="41.4,366 44.8,368 48.3,366.3 51.1,369 54.9,368.2 
						56.9,371.6 60.8,371.8 61.9,375.5 65.6,376.7 65.7,380.6 69,382.6 68.2,386.5 70.8,389.3 69.1,392.8 71,396.2 68.4,399.2 
						69.4,403 66.2,405.3 66.2,409.2 62.5,410.7 61.6,414.5 57.7,415 55.8,418.5 52,417.9 49.3,420.9 45.7,419.4 42.4,421.6 
						39.3,419.3 35.6,420.6 33.2,417.5 29.2,417.9 27.7,414.3 23.8,413.7 23.2,409.8 19.6,408.2 19.9,404.2 16.9,401.7 18.2,398 
						15.9,394.8 18.1,391.5 16.6,387.8 19.6,385.1 19.1,381.2 22.6,379.3 23.1,375.4 26.9,374.5 28.4,370.8 32.3,370.8 34.6,367.6 
						38.4,368.6 					"/>
					<path fill="none" stroke="#FFFFFF" d="M64.8,391.4c-1-11.9-11.3-20.6-23.1-19.4C29.9,373.1,21,383.7,22,395.7
						c1,11.9,11.4,20.6,23.2,19.4C57,413.8,65.8,403.2,64.8,391.4z"/>
					<path fill="#E7E7E8" d="M63.6,391.5c-0.9-11.2-10.6-19.4-21.7-18.3c-11.2,1.1-19.5,11.1-18.6,22.4
						c0.9,11.3,10.8,19.4,21.9,18.3C56.3,412.6,64.5,402.6,63.6,391.5z"/>
					<g>
						<polygon fill="#F4256A" points="77.2,404.6 9.9,411.6 8.8,398.1 76.2,391.3 						"/>
						<polygon fill="#D8235F" points="10.8,411.6 24,410.2 24,412 						"/>
						<polygon fill="#D8235F" points="77.6,404.6 61.9,406.2 65.8,407.7 						"/>
					</g>
					<g>
						<path fill="#FFFFFF" d="M18.9,400.9c-0.1-0.1-0.2-0.2-0.3-0.2c-0.1,0-0.3,0-0.4,0c-0.1,0-0.1,0-0.2,0c-0.1,0-0.1,0.1-0.2,0.1
							c-0.1,0-0.1,0.1-0.1,0.2c0,0.1-0.1,0.1,0,0.2c0,0.1,0.1,0.2,0.2,0.3c0.1,0.1,0.2,0.1,0.4,0.1c0.2,0,0.3,0.1,0.5,0.1
							c0.2,0,0.3,0.1,0.5,0.2c0.2,0.1,0.3,0.2,0.4,0.3c0.1,0.1,0.2,0.3,0.2,0.6c0,0.2,0,0.5-0.1,0.6c-0.1,0.2-0.2,0.4-0.3,0.5
							c-0.1,0.1-0.3,0.2-0.5,0.3c-0.2,0.1-0.4,0.1-0.6,0.2c-0.3,0-0.5,0-0.8,0c-0.2-0.1-0.5-0.2-0.7-0.3l0.6-0.8
							c0.1,0.1,0.2,0.2,0.4,0.3c0.2,0.1,0.3,0.1,0.5,0.1c0.1,0,0.2,0,0.2-0.1c0.1,0,0.1-0.1,0.2-0.1c0.1,0,0.1-0.1,0.1-0.2
							c0-0.1,0-0.1,0-0.2c0-0.1-0.1-0.2-0.2-0.3c-0.1-0.1-0.2-0.1-0.4-0.2c-0.2,0-0.3-0.1-0.5-0.1c-0.2,0-0.4-0.1-0.5-0.2
							c-0.2-0.1-0.3-0.2-0.4-0.3c-0.1-0.1-0.2-0.3-0.2-0.6c0-0.2,0-0.4,0.1-0.6c0.1-0.2,0.2-0.3,0.3-0.5c0.1-0.1,0.3-0.2,0.5-0.3
							c0.2-0.1,0.4-0.1,0.6-0.2c0.2,0,0.5,0,0.7,0c0.2,0,0.5,0.1,0.6,0.3L18.9,400.9z"/>
						<path fill="#FFFFFF" d="M20.1,399.7l1-0.1l0.4,4.4l-1,0.1L20.1,399.7z"/>
						<path fill="#FFFFFF" d="M22,399.5l1-0.1l0.3,3.5l1.8-0.2l0.1,0.9l-2.7,0.3L22,399.5z"/>
						<path fill="#FFFFFF" d="M24.3,399.3l1.1-0.1l1.3,2.7l0,0l0.9-3l1-0.1l-1.4,4.5l-0.8,0.1L24.3,399.3z"/>
						<path fill="#FFFFFF" d="M29,398.8l2.9-0.3l0.1,0.9l-2,0.2l0.1,0.8l1.9-0.2l0.1,0.9l-1.9,0.2l0.1,0.9l2.1-0.2l0.1,0.9l-3.1,0.3
							L29,398.8z"/>
						<path fill="#FFFFFF" d="M32.9,398.4l1.7-0.2c0.2,0,0.4,0,0.6,0c0.2,0,0.4,0.1,0.5,0.2c0.2,0.1,0.3,0.2,0.4,0.4
							c0.1,0.2,0.2,0.4,0.2,0.6c0,0.3,0,0.6-0.2,0.8c-0.1,0.2-0.4,0.4-0.7,0.5l1.2,1.7l-1.1,0.1l-1-1.6l-0.5,0l0.1,1.7l-1,0.1
							L32.9,398.4z M34,400.1l0.6-0.1c0.1,0,0.2,0,0.3,0c0.1,0,0.2,0,0.3-0.1c0.1,0,0.1-0.1,0.2-0.2c0-0.1,0.1-0.2,0.1-0.3
							c0-0.1,0-0.2-0.1-0.3c-0.1-0.1-0.1-0.1-0.2-0.1c-0.1,0-0.2,0-0.2,0c-0.1,0-0.2,0-0.3,0l-0.6,0.1L34,400.1z"/>
						<path fill="#FFFFFF" d="M41.5,398.7c-0.1-0.1-0.2-0.2-0.4-0.2c-0.1,0-0.3-0.1-0.5,0c-0.2,0-0.3,0.1-0.5,0.2
							c-0.1,0.1-0.3,0.2-0.4,0.3c-0.1,0.1-0.2,0.3-0.2,0.5c0,0.2-0.1,0.4,0,0.6c0,0.2,0.1,0.4,0.1,0.6c0.1,0.2,0.2,0.3,0.3,0.4
							c0.1,0.1,0.3,0.2,0.4,0.3c0.2,0.1,0.3,0.1,0.5,0.1c0.2,0,0.4-0.1,0.5-0.2c0.1-0.1,0.3-0.2,0.3-0.4l0.8,0.5
							c-0.2,0.3-0.4,0.5-0.6,0.6c-0.3,0.2-0.6,0.2-0.8,0.3c-0.3,0-0.7,0-0.9-0.1c-0.3-0.1-0.6-0.2-0.8-0.4c-0.2-0.2-0.4-0.4-0.5-0.7
							c-0.1-0.3-0.2-0.6-0.3-0.9c0-0.3,0-0.7,0.1-1c0.1-0.3,0.2-0.6,0.4-0.8c0.2-0.2,0.4-0.4,0.7-0.5c0.3-0.1,0.6-0.2,0.9-0.3
							c0.1,0,0.2,0,0.4,0c0.1,0,0.3,0,0.4,0.1c0.1,0,0.3,0.1,0.4,0.2c0.1,0.1,0.2,0.2,0.3,0.3L41.5,398.7z"/>
						<path fill="#FFFFFF" d="M42.8,397.4l2.9-0.3l0.1,0.9l-2,0.2l0.1,0.8l1.9-0.2l0.1,0.9l-1.9,0.2l0.1,0.9l2.1-0.2l0.1,0.9l-3,0.3
							L42.8,397.4z"/>
						<path fill="#FFFFFF" d="M46.6,397l1.7-0.2c0.2,0,0.4,0,0.6,0c0.2,0,0.4,0.1,0.5,0.2c0.2,0.1,0.3,0.2,0.4,0.4
							c0.1,0.2,0.2,0.4,0.2,0.6c0,0.3,0,0.6-0.2,0.8c-0.1,0.2-0.4,0.4-0.7,0.5l1.2,1.7l-1.1,0.1l-1-1.6l-0.5,0l0.1,1.7l-0.9,0.1
							L46.6,397z M47.7,398.7l0.6-0.1c0.1,0,0.2,0,0.3,0c0.1,0,0.2,0,0.3-0.1c0.1,0,0.1-0.1,0.2-0.2c0-0.1,0.1-0.2,0.1-0.3
							c0-0.1,0-0.2-0.1-0.3c0-0.1-0.1-0.1-0.2-0.1c-0.1,0-0.2,0-0.2,0c-0.1,0-0.2,0-0.3,0l-0.6,0.1L47.7,398.7z"/>
						<path fill="#FFFFFF" d="M51.3,397.4l-1.2,0.1l-0.1-0.8l3.4-0.3l0.1,0.8l-1.2,0.1l0.3,3.5l-0.9,0.1L51.3,397.4z"/>
						<path fill="#FFFFFF" d="M53.9,396.3l0.9-0.1l0.3,4.3l-0.9,0.1L53.9,396.3z"/>
						<path fill="#FFFFFF" d="M55.7,396.1l2.9-0.3l0.1,0.9l-1.9,0.2l0.1,0.9l1.8-0.2l0.1,0.9l-1.8,0.2l0.1,1.7l-0.9,0.1L55.7,396.1z
							"/>
						<path fill="#FFFFFF" d="M59.3,395.7l0.9-0.1l0.3,4.3l-0.9,0.1L59.3,395.7z"/>
						<path fill="#FFFFFF" d="M61.1,395.5l2.9-0.3l0.1,0.9l-2,0.2l0.1,0.8l1.9-0.2l0.1,0.9l-1.9,0.2l0.1,0.9l2.1-0.2l0.1,0.9l-3,0.3
							L61.1,395.5z"/>
						<path fill="#FFFFFF" d="M64.9,395.2l1.4-0.1c0.3,0,0.7,0,1,0c0.3,0,0.6,0.1,0.8,0.3c0.2,0.1,0.4,0.4,0.6,0.6
							c0.2,0.3,0.3,0.6,0.3,1c0,0.3,0,0.7-0.1,0.9c-0.1,0.3-0.3,0.5-0.5,0.7c-0.2,0.2-0.5,0.4-0.7,0.5c-0.3,0.1-0.6,0.2-0.9,0.2
							l-1.5,0.2L64.9,395.2z M66.1,398.5l0.5-0.1c0.2,0,0.4-0.1,0.6-0.1c0.2-0.1,0.3-0.2,0.5-0.3c0.1-0.1,0.2-0.3,0.3-0.4
							c0.1-0.2,0.1-0.4,0.1-0.6c0-0.2-0.1-0.4-0.2-0.5c-0.1-0.1-0.2-0.3-0.3-0.4c-0.1-0.1-0.3-0.1-0.5-0.2c-0.2,0-0.4,0-0.6,0
							l-0.6,0.1L66.1,398.5z"/>
					</g>
					<g>
						<path fill="#FFFFFF" d="M34.8,404.4l0.9-0.1c0.1,0,0.3,0,0.4,0c0.1,0,0.2,0,0.3,0.1c0.1,0.1,0.2,0.1,0.2,0.2
							c0.1,0.1,0.1,0.2,0.1,0.4c0,0.2,0,0.3-0.1,0.4c-0.1,0.1-0.1,0.2-0.2,0.3c-0.1,0.1-0.2,0.1-0.3,0.2c-0.1,0-0.2,0.1-0.3,0.1
							l-0.6,0.1l0.1,1.3l-0.3,0L34.8,404.4z M35.2,405.7l0.6-0.1c0.2,0,0.3-0.1,0.4-0.2c0.1-0.1,0.1-0.2,0.1-0.4
							c0-0.2-0.1-0.3-0.2-0.3c-0.1-0.1-0.3-0.1-0.4-0.1l-0.6,0.1L35.2,405.7z"/>
						<path fill="#FFFFFF" d="M37.8,404.1l0.3,0l1.5,2.8l-0.4,0l-0.4-0.7l-1.4,0.1l-0.2,0.7l-0.4,0L37.8,404.1z M38,404.5L38,404.5
							l-0.5,1.5l1.2-0.1L38,404.5z"/>
						<path fill="#FFFFFF" d="M39.7,403.9l0.7-0.1c0.1,0,0.3,0,0.4,0c0.1,0,0.3,0,0.4,0.1c0.1,0,0.2,0.1,0.3,0.2
							c0.1,0.1,0.1,0.2,0.1,0.4c0,0.2,0,0.4-0.1,0.5c-0.1,0.1-0.3,0.2-0.5,0.3l0.9,1.2l-0.4,0l-0.9-1.2l-0.4,0l0.1,1.3l-0.3,0
							L39.7,403.9z M40.2,405.2l0.3,0c0.1,0,0.2,0,0.3,0c0.1,0,0.2,0,0.3-0.1c0.1,0,0.1-0.1,0.2-0.2c0.1-0.1,0.1-0.2,0.1-0.3
							c0-0.1,0-0.2-0.1-0.2c0-0.1-0.1-0.1-0.2-0.1c-0.1,0-0.1,0-0.2,0c-0.1,0-0.2,0-0.3,0l-0.5,0L40.2,405.2z"/>
						<path fill="#FFFFFF" d="M44.1,403.8l-0.9,0.1l0.2,2.6l-0.3,0l-0.2-2.6l-0.9,0.1l0-0.3l2.2-0.2L44.1,403.8z"/>
						<path fill="#FFFFFF" d="M44.5,403.4l0.4,0l1.9,2.2l0,0l-0.2-2.4l0.3,0l0.2,2.9l-0.4,0l-1.9-2.2l0,0l0.2,2.4l-0.3,0L44.5,403.4
							z"/>
						<path fill="#FFFFFF" d="M47.6,403.1l1.8-0.2l0,0.3l-1.5,0.2l0.1,0.9l1.4-0.1l0,0.3l-1.4,0.1l0.1,1l1.5-0.2l0,0.3l-1.9,0.2
							L47.6,403.1z"/>
						<path fill="#FFFFFF" d="M50,402.9l0.7-0.1c0.1,0,0.3,0,0.4,0c0.1,0,0.3,0,0.4,0.1c0.1,0,0.2,0.1,0.3,0.2
							c0.1,0.1,0.1,0.2,0.1,0.4c0,0.2,0,0.4-0.1,0.5c-0.1,0.1-0.3,0.2-0.5,0.3l0.9,1.2l-0.4,0l-0.9-1.2l-0.4,0l0.1,1.3l-0.3,0
							L50,402.9z M50.5,404.1l0.3,0c0.1,0,0.2,0,0.3,0c0.1,0,0.2,0,0.3-0.1s0.1-0.1,0.2-0.2c0.1-0.1,0.1-0.2,0.1-0.3
							c0-0.1,0-0.2-0.1-0.2c0-0.1-0.1-0.1-0.2-0.1c-0.1,0-0.1,0-0.2,0c-0.1,0-0.2,0-0.2,0l-0.5,0L50.5,404.1z"/>
					</g>
					<polygon fill="#FFFFFF" points="32.9,406.8 18.9,407.9 18.8,406.9 32.8,405.8 					"/>
					<polygon fill="#FFFFFF" points="67.4,403.2 53.6,404.3 53.5,403.4 67.3,402.3 					"/>
					<g>
						<g>
							<polygon fill="#AEAFAF" points="32.4,383.1 32.4,383.1 31,380.5 30.3,380.6 30.6,384.2 31.1,384.1 30.8,381.2 30.8,381.2 
								32.3,384 32.6,384 33.6,380.9 33.6,380.9 33.8,383.9 34.3,383.8 34,380.2 33.3,380.3 							"/>
							<path fill="#AEAFAF" d="M35.9,381.2c-0.7,0.1-1.2,0.7-1.1,1.4c0.1,0.7,0.6,1.2,1.3,1.1c0.5,0,0.8-0.2,1-0.6l-0.4-0.2
								c-0.2,0.2-0.4,0.4-0.6,0.4c-0.4,0-0.8-0.2-0.9-0.6l1.9-0.2l0-0.2C37.1,381.7,36.7,381.1,35.9,381.2z M35.2,382.3
								c0-0.3,0.2-0.7,0.7-0.8c0.5,0,0.7,0.2,0.8,0.6L35.2,382.3z"/>
							<path fill="#AEAFAF" d="M39.4,381.2L39.4,381.2c-0.2-0.2-0.5-0.4-0.9-0.3c-0.7,0.1-1.2,0.7-1.1,1.4c0.1,0.7,0.6,1.2,1.3,1.1
								c0.3,0,0.8-0.1,0.8-0.1l0,0l0.5,0l-0.3-3.6l-0.5,0L39.4,381.2z M38.8,383c-0.5,0-0.8-0.3-0.9-0.8c0-0.5,0.2-0.9,0.7-0.9
								c0.5,0,0.8,0.3,0.9,0.8C39.6,382.6,39.3,383,38.8,383z"/>
							<polygon fill="#AEAFAF" points="40.7,383.2 41.1,383.2 40.9,380.7 40.5,380.8 							"/>
							<path fill="#AEAFAF" d="M42.5,380.5c-0.3,0-0.7,0.2-0.9,0.5l0.3,0.3c0.2-0.1,0.3-0.3,0.7-0.3c0.4,0,0.6,0.2,0.6,0.5l0,0.1
								l-0.3,0c-0.7,0.1-1.3,0.3-1.3,1c0,0.5,0.4,0.6,0.9,0.6c0.4,0,0.8-0.1,0.8-0.1l0,0l0.4,0c0,0,0-0.3,0-0.4l-0.1-1.2
								C43.5,380.8,43.2,380.5,42.5,380.5z M43.2,381.9c0,0.3-0.1,0.7-0.6,0.8c-0.3,0-0.5-0.1-0.5-0.3c0-0.4,0.5-0.5,0.9-0.6l0.2,0
								L43.2,381.9z"/>
							<path fill="#AEAFAF" d="M49.3,379.9c-0.3,0-0.7,0.2-0.9,0.4l0.3,0.3c0.2-0.1,0.3-0.3,0.7-0.3c0.4,0,0.6,0.2,0.6,0.5l0,0.1
								l-0.3,0c-0.7,0.1-1.3,0.3-1.3,1c0,0.5,0.4,0.6,0.9,0.6c0.4,0,0.8-0.1,0.8-0.1l0,0l0.4,0c0,0,0-0.3,0-0.4l-0.1-1.2
								C50.3,380.1,50,379.8,49.3,379.9z M50,381.3c0,0.3-0.1,0.7-0.6,0.8c-0.3,0-0.5-0.1-0.5-0.3c0-0.4,0.5-0.5,0.9-0.6l0.2,0
								L50,381.3z"/>
							<polygon fill="#AEAFAF" points="46.1,381.8 46.1,381.8 44.7,379.2 44,379.2 44.3,382.8 44.8,382.8 44.5,379.8 44.6,379.8 
								46,382.7 46.3,382.6 47.3,379.6 47.3,379.6 47.5,382.5 48,382.5 47.7,378.9 47,378.9 							"/>
							<path fill="#AEAFAF" d="M51.7,381.2l-0.1-1.1l0.7-0.1l0-0.4l-0.7,0.1l-0.1-0.7l-0.5,0l0.1,0.7l-0.5,0.1l0,0.4l0.5-0.1
								l0.1,1.3c0,0.4,0.1,0.8,0.8,0.7c0.1,0,0.3-0.1,0.4-0.1l0-0.4c-0.1,0.1-0.2,0.1-0.3,0.1C51.8,381.7,51.7,381.4,51.7,381.2z"/>
							<path fill="#AEAFAF" d="M54,379.4c-0.4,0-0.8,0.1-0.8,0.1l-0.1-1.1l-0.5,0l0.3,3.6l0.5,0l-0.1-1.2c0-0.6,0.2-0.8,0.6-0.9
								c0.3,0,0.6,0.1,0.6,0.6l0.1,1.4l0.5,0l-0.1-1.6C54.9,379.6,54.4,379.4,54,379.4z"/>
							<polygon fill="#AEAFAF" points="40.4,380.4 40.9,380.3 40.9,379.9 40.4,379.9 							"/>
						</g>
					</g>
					<g>
						<path fill="#AEAFAF" d="M30.6,388.5c0-0.4,0-0.8,0.1-1.2c0.1-0.4,0.3-0.7,0.6-0.9c0.2-0.3,0.5-0.5,0.9-0.7
							c0.4-0.2,0.7-0.3,1.1-0.3c0.4,0,0.8,0,1.2,0.1c0.4,0.1,0.7,0.3,1,0.5c0.3,0.2,0.5,0.5,0.7,0.8c0.2,0.3,0.3,0.7,0.3,1.1
							s0,0.8-0.1,1.2s-0.3,0.7-0.6,0.9c-0.2,0.3-0.5,0.5-0.9,0.7c-0.3,0.2-0.7,0.3-1.1,0.3c-0.4,0-0.8,0-1.2-0.1
							c-0.4-0.1-0.7-0.3-1-0.5c-0.3-0.2-0.5-0.5-0.7-0.8C30.8,389.3,30.7,388.9,30.6,388.5z M32.3,388.3c0,0.4,0.2,0.7,0.4,0.9
							c0.3,0.2,0.6,0.3,1,0.3c0.4,0,0.7-0.2,0.9-0.5c0.2-0.3,0.3-0.6,0.3-1c0-0.4-0.2-0.7-0.4-0.9c-0.3-0.2-0.6-0.3-1-0.3
							c-0.4,0-0.7,0.2-0.9,0.5C32.3,387.6,32.3,387.9,32.3,388.3z"/>
						<path fill="#AEAFAF" d="M37.4,385.1L39,385l0.1,0.7l0,0c0.1-0.1,0.1-0.2,0.2-0.3c0.1-0.1,0.2-0.2,0.3-0.3
							c0.1-0.1,0.3-0.2,0.4-0.2c0.2-0.1,0.3-0.1,0.5-0.1c0.4,0,0.8,0,1.1,0.1c0.3,0.1,0.6,0.3,0.9,0.5c0.2,0.2,0.4,0.5,0.6,0.8
							c0.2,0.3,0.2,0.7,0.3,1.1c0,0.4,0,0.7-0.1,1.1c-0.1,0.4-0.2,0.7-0.4,1c-0.2,0.3-0.4,0.5-0.7,0.7c-0.3,0.2-0.6,0.3-1,0.3
							c-0.3,0-0.7,0-1-0.1c-0.3-0.1-0.6-0.2-0.8-0.5l0,0l0.3,3.1l-1.6,0.2L37.4,385.1z M39.2,387.6c0,0.4,0.2,0.7,0.4,0.9
							c0.2,0.2,0.6,0.3,1,0.3c0.4,0,0.7-0.2,0.9-0.5c0.2-0.3,0.3-0.6,0.3-1s-0.2-0.7-0.4-0.9c-0.2-0.2-0.6-0.3-1-0.3
							c-0.4,0-0.7,0.2-0.9,0.5C39.2,386.9,39.1,387.2,39.2,387.6z"/>
						<path fill="#AEAFAF" d="M49.5,388.4c-0.2,0.4-0.5,0.7-0.9,0.9c-0.4,0.2-0.8,0.4-1.2,0.4c-0.4,0-0.8,0-1.2-0.1
							c-0.4-0.1-0.7-0.3-1-0.5c-0.3-0.2-0.5-0.5-0.7-0.8c-0.2-0.3-0.3-0.7-0.3-1.1c0-0.4,0-0.8,0.1-1.2c0.1-0.4,0.3-0.7,0.6-0.9
							c0.2-0.3,0.5-0.5,0.9-0.7c0.3-0.2,0.7-0.3,1.1-0.3c0.4,0,0.7,0,1,0.1c0.3,0.1,0.6,0.3,0.8,0.5c0.2,0.2,0.4,0.5,0.6,0.8
							c0.1,0.3,0.2,0.7,0.3,1.1l0,0.5l-3.8,0.4c0.1,0.3,0.3,0.5,0.5,0.7c0.2,0.2,0.5,0.2,0.8,0.2c0.3,0,0.5-0.1,0.7-0.2
							c0.2-0.1,0.3-0.3,0.4-0.5L49.5,388.4z M48,386.2c0-0.3-0.1-0.5-0.3-0.7c-0.2-0.2-0.5-0.3-0.8-0.2c-0.2,0-0.3,0.1-0.5,0.1
							c-0.1,0.1-0.2,0.2-0.3,0.3c-0.1,0.1-0.2,0.2-0.2,0.3c0,0.1-0.1,0.3-0.1,0.4L48,386.2z"/>
						<path fill="#AEAFAF" d="M50.4,383.8l1.6-0.2l0.1,0.7l0,0c0-0.1,0.1-0.2,0.2-0.3c0.1-0.1,0.2-0.2,0.3-0.3
							c0.1-0.1,0.3-0.2,0.4-0.2c0.2-0.1,0.3-0.1,0.5-0.1c0.4,0,0.8,0,1,0.1c0.3,0.1,0.5,0.3,0.6,0.5c0.2,0.2,0.3,0.5,0.4,0.8
							c0.1,0.3,0.1,0.6,0.2,1l0.2,2.9l-1.6,0.2l-0.2-2.6c0-0.2,0-0.3-0.1-0.5c0-0.2-0.1-0.3-0.1-0.4c-0.1-0.1-0.2-0.2-0.3-0.3
							c-0.1-0.1-0.3-0.1-0.5-0.1c-0.2,0-0.4,0.1-0.5,0.2c-0.1,0.1-0.2,0.2-0.3,0.3c-0.1,0.1-0.1,0.3-0.1,0.4c0,0.2,0,0.3,0,0.5
							l0.2,2.7l-1.6,0.2L50.4,383.8z"/>
					</g>
				</g>
			</g>
		</g>
	</g>
</g>
</svg>
