<?xml version="1.0" encoding="utf-8"?>
<!-- Generator: Adobe Illustrator 19.1.0, SVG Export Plug-In . SVG Version: 6.00 Build 0)  -->
<svg version="1.1" id="Layer_1" xmlns="http://www.w3.org/2000/svg" xmlns:xlink="http://www.w3.org/1999/xlink" x="0px" y="0px"
	 viewBox="0 0 188.2 46.3" style="enable-background:new 0 0 188.2 46.3;" xml:space="preserve">
<style type="text/css">
	.st0{fill:#5D863B;}
	.st1{fill:#7A68AC;}
	.st2{fill:#DE396E;}
	.st3{fill:#55BBEA;}
	.st4{fill:#C32032;}
	.st5{fill:#F49E1D;}
	.st6{fill:#005386;}
	.st7{fill:#005486;stroke:#005386;stroke-width:1.309;}
	.st8{fill:#FFFFFF;}
</style>
<g>
	<g>
		<rect x="3.5" y="9.4" class="st0" width="13" height="6.4"/>
		<rect x="32.2" y="5.4" class="st1" width="8.8" height="7.2"/>
		<rect x="16.5" y="31.1" class="st2" width="5.3" height="4.1"/>
		<polygon class="st2" points="21.8,15.8 21.8,12.5 29.6,12.5 29.6,2.3 16.5,2.3 16.5,9.4 16.5,15.8 		"/>
		<polygon class="st3" points="21.8,31.1 21.8,35.3 21.8,39.9 41,39.9 41,31.1 		"/>
		<polygon class="st3" points="21.8,15.8 41,15.8 41,12.5 32.2,12.5 29.6,12.5 21.8,12.5 		"/>
		<rect x="52.4" y="7.7" class="st4" width="20" height="8.1"/>
		<rect x="52.4" y="31.1" class="st4" width="20" height="6.9"/>
		<polygon class="st5" points="41,15.8 52.4,15.8 52.4,7.7 52.4,0 41,0 41,5.4 41,12.5 		"/>
		<polygon class="st5" points="41,31.1 41,39.9 41,46.3 52.4,46.3 52.4,38 52.4,31.1 		"/>
		<path class="st6" d="M52.4,15.8H41H21.8h-5.3h-13H0v15.3h16.5h5.3H41h11.4h20h3.5V15.8h-3.5H52.4z M15.9,28h-1.3v-7.6h0L11.5,28
			h-0.8l-3.1-7.6h0V28H6.3v-9.3h1.9l3,7h0.1l2.9-7h1.9V28z M23.5,25.4h-5c0,1.1,1,1.8,2.1,1.8c0.7,0,1.2-0.4,1.7-0.9l0.9,0.7
			c-0.7,0.9-1.6,1.3-2.8,1.3c-2,0-3.2-1.4-3.2-3.3c0-1.9,1.4-3.3,3.2-3.3c2.2,0,3,1.7,3,3.3V25.4z M30.8,28h-1.2h0c0,0-1.3,0-2.2,0
			c-1.9,0-3.2-1.3-3.2-3.1c0-1.9,1.2-3.3,3.2-3.3c0.9,0,1.7,0.4,2.2,1h0v-4h1.2V28z M33.5,28h-1.2v-6.2h1.2V28z M33.5,20.8h-1.2
			v-1.2h1.2V20.8z M40.2,26.9c0,0.4,0,1.1,0,1.1h-1h-0.1c0,0-1.2,0-2.2,0c-1.2,0-2.2-0.5-2.2-1.7c0-1.6,1.5-2.2,3.4-2.2h0.9v-0.3
			c0-0.6-0.5-1.3-1.5-1.3c-0.9,0-1.3,0.4-1.8,0.7l-0.7-0.7c0.7-0.6,1.6-0.9,2.5-0.9c1.8,0,2.6,1,2.6,2.1V26.9z M51.5,28h-1.3v-7.6h0
			L47.1,28h-0.8l-3.1-7.6h0V28h-1.3v-9.3h1.9l3,7h0.1l2.9-7h1.9V28z M57.8,26.9c0,0.4,0,1.1,0,1.1h-1h-0.1c0,0-1.2,0-2.2,0
			c-1.2,0-2.2-0.5-2.2-1.7c0-1.6,1.5-2.2,3.4-2.2h0.9v-0.3c0-0.6-0.5-1.3-1.5-1.3c-0.9,0-1.3,0.4-1.8,0.7l-0.7-0.7
			c0.7-0.6,1.6-0.9,2.5-0.9c1.8,0,2.6,1,2.6,2.1V26.9z M63,28c-0.3,0.2-0.8,0.2-1.1,0.2c-1.8,0-1.9-1.1-1.9-2.1v-3.2h-1.4v-1h1.4
			v-1.7h1.2v1.7H63v1h-1.7v2.8c0,0.7,0,1.4,0.9,1.4c0.3,0,0.6,0,0.8-0.2V28z M69.7,28h-1.2v-3.7c0-1.2-0.7-1.6-1.4-1.6
			c-1,0-1.7,0.6-1.7,2.1V28h-1.2v-9.3h1.2l0,2.9c0,0,1.1,0,2,0c1.2,0,2.3,0.7,2.3,2.4V28z"/>
		<path class="st7" d="M20.4,22.6c-1.2,0-1.9,1-1.9,1.8h3.7C22.2,23.4,21.6,22.6,20.4,22.6z"/>
		<path class="st7" d="M36,26.2c0,0.7,0.5,1,1.3,1c1.3,0,1.8-1,1.8-1.8V25h-0.6C37.3,25,36,25.2,36,26.2z"/>
		<path class="st7" d="M27.6,22.8c-1.3,0-2,0.9-2,2.2c0,1.3,0.8,2.2,2,2.2c1.3,0,2-0.9,2-2.2C29.6,23.7,28.8,22.8,27.6,22.8z"/>
		<path class="st7" d="M53.6,26.2c0,0.7,0.5,1,1.3,1c1.3,0,1.8-1,1.8-1.8V25h-0.6C55,25,53.6,25.2,53.6,26.2z"/>
		<polygon class="st8" points="11.1,25.8 11.1,25.8 8.1,18.7 6.3,18.7 6.3,28 7.5,28 7.5,20.4 7.5,20.4 10.7,28 11.5,28 14.7,20.4 
			14.7,20.4 14.7,28 15.9,28 15.9,18.7 14.1,18.7 		"/>
		<path class="st8" d="M20.5,21.7c-1.9,0-3.2,1.4-3.2,3.3c0,1.9,1.2,3.3,3.2,3.3c1.2,0,2.1-0.4,2.8-1.3l-0.9-0.7
			c-0.5,0.6-1,0.9-1.7,0.9c-1.1,0-2.1-0.7-2.1-1.8h5v-0.4C23.5,23.3,22.6,21.7,20.5,21.7z M18.5,24.4c0-0.8,0.8-1.8,1.9-1.8
			c1.2,0,1.8,0.8,1.8,1.8H18.5z"/>
		<path class="st8" d="M29.6,22.7L29.6,22.7c-0.4-0.6-1.3-1-2.2-1c-1.9,0-3.2,1.4-3.2,3.3c0,1.8,1.2,3.1,3.2,3.1c0.8,0,2.2,0,2.2,0
			h0h1.2v-9.3h-1.2V22.7z M27.6,27.1c-1.3,0-2-0.9-2-2.2c0-1.3,0.8-2.2,2-2.2c1.3,0,2,0.9,2,2.2C29.6,26.2,28.8,27.1,27.6,27.1z"/>
		<rect x="32.4" y="21.8" class="st8" width="1.2" height="6.2"/>
		<path class="st8" d="M37.6,21.7c-0.9,0-1.8,0.3-2.5,0.9l0.7,0.7c0.4-0.3,0.9-0.7,1.8-0.7c1,0,1.5,0.7,1.5,1.3v0.3h-0.9
			c-1.9,0-3.4,0.6-3.4,2.2c0,1.2,1,1.7,2.2,1.7c0.9,0,2.2,0,2.2,0h0.1h1c0,0,0-0.7,0-1.1v-3.2C40.2,22.7,39.4,21.7,37.6,21.7z
			 M39.1,25.4c0,0.8-0.5,1.8-1.8,1.8c-0.8,0-1.3-0.3-1.3-1c0-1,1.4-1.2,2.5-1.2h0.6V25.4z"/>
		<path class="st8" d="M55.2,21.7c-0.9,0-1.8,0.3-2.5,0.9l0.7,0.7c0.4-0.3,0.9-0.7,1.8-0.7c1,0,1.5,0.7,1.5,1.3v0.3h-0.9
			c-1.9,0-3.4,0.6-3.4,2.2c0,1.2,1,1.7,2.2,1.7c0.9,0,2.2,0,2.2,0h0.1h1c0,0,0-0.7,0-1.1v-3.2C57.8,22.7,57,21.7,55.2,21.7z
			 M56.7,25.4c0,0.8-0.5,1.8-1.8,1.8c-0.8,0-1.3-0.3-1.3-1c0-1,1.4-1.2,2.5-1.2h0.6V25.4z"/>
		<polygon class="st8" points="46.7,25.8 46.6,25.8 43.7,18.7 41.8,18.7 41.8,28 43,28 43,20.4 43.1,20.4 46.2,28 47.1,28 
			50.2,20.4 50.2,20.4 50.2,28 51.5,28 51.5,18.7 49.6,18.7 		"/>
		<path class="st8" d="M61.3,25.7v-2.8H63v-1h-1.7v-1.7h-1.2v1.7h-1.4v1h1.4v3.2c0,1,0,2.1,1.9,2.1c0.2,0,0.8-0.1,1.1-0.2v-1.1
			c-0.2,0.1-0.6,0.2-0.8,0.2C61.3,27.1,61.3,26.4,61.3,25.7z"/>
		<path class="st8" d="M67.4,21.7c-1,0-2,0-2,0l0-2.9h-1.2V28h1.2v-3.2c0-1.4,0.7-2.1,1.7-2.1c0.7,0,1.4,0.4,1.4,1.6V28h1.2v-4
			C69.7,22.4,68.6,21.7,67.4,21.7z"/>
		<rect x="32.4" y="19.6" class="st8" width="1.2" height="1.2"/>
	</g>
	<g>
		<polygon class="st3" points="90.7,43.6 89.9,43.6 89.9,3.2 90.7,3.2 90.7,43.6 		"/>
	</g>
	<g>
		<path class="st3" d="M108.6,13.7h2v17.1h-2V13.7z"/>
		<path class="st3" d="M114.5,22.2c0-0.5,0-1,0-1.4c0-0.4,0-0.9,0-1.2h1.8c0,0.3,0,0.6,0,0.9c0,0.3,0,0.6,0,0.9h0
			c0.1-0.3,0.3-0.5,0.5-0.8c0.2-0.3,0.5-0.5,0.8-0.7c0.3-0.2,0.7-0.4,1.1-0.5c0.4-0.1,0.8-0.2,1.3-0.2c0.7,0,1.4,0.1,1.9,0.3
			c0.5,0.2,1,0.5,1.3,0.9c0.4,0.4,0.6,0.9,0.8,1.5c0.2,0.6,0.3,1.2,0.3,1.9v7h-1.9V24c0-0.9-0.2-1.7-0.6-2.2c-0.4-0.5-1.1-0.8-2-0.8
			c-0.6,0-1.1,0.1-1.6,0.3c-0.4,0.2-0.8,0.5-1.1,0.9c-0.3,0.4-0.5,0.8-0.6,1.4c-0.1,0.5-0.2,1.1-0.2,1.8v5.5h-1.9V22.2z"/>
		<path class="st3" d="M128.2,27.8c0.4,0.5,0.8,0.8,1.2,1.1c0.4,0.3,1,0.4,1.7,0.4c0.3,0,0.6,0,0.9-0.1c0.3-0.1,0.6-0.2,0.8-0.3
			c0.2-0.1,0.4-0.3,0.6-0.5c0.1-0.2,0.2-0.5,0.2-0.8c0-0.3-0.1-0.6-0.2-0.7c-0.1-0.2-0.3-0.4-0.5-0.5c-0.2-0.1-0.5-0.2-0.8-0.3
			c-0.3-0.1-0.6-0.2-0.9-0.2c-0.5-0.1-1-0.2-1.5-0.4c-0.5-0.1-0.9-0.3-1.3-0.6c-0.4-0.2-0.7-0.5-0.9-0.9c-0.2-0.4-0.3-0.8-0.3-1.4
			c0-0.5,0.1-1,0.4-1.4c0.2-0.4,0.6-0.8,1-1c0.4-0.3,0.9-0.5,1.3-0.6c0.5-0.1,1-0.2,1.5-0.2c0.8,0,1.5,0.2,2.2,0.5
			c0.7,0.3,1.2,0.8,1.6,1.6l-1.6,1c-0.2-0.4-0.6-0.7-1-1c-0.4-0.2-0.9-0.4-1.4-0.4c-0.3,0-0.5,0-0.8,0.1c-0.3,0.1-0.5,0.2-0.7,0.3
			c-0.2,0.1-0.4,0.3-0.5,0.5c-0.1,0.2-0.2,0.4-0.2,0.7c0,0.2,0.1,0.4,0.2,0.6c0.2,0.2,0.4,0.3,0.6,0.4s0.6,0.2,0.9,0.3
			c0.3,0.1,0.7,0.2,1.1,0.2c0.5,0.1,1,0.2,1.4,0.4c0.4,0.2,0.8,0.4,1.2,0.6c0.3,0.3,0.6,0.6,0.8,1c0.2,0.4,0.3,0.9,0.3,1.4
			c0,0.6-0.1,1.2-0.4,1.6c-0.3,0.5-0.6,0.8-1,1.1c-0.4,0.3-0.9,0.5-1.4,0.6c-0.5,0.1-1.1,0.2-1.7,0.2c-1,0-1.8-0.1-2.5-0.4
			c-0.7-0.3-1.3-0.8-1.9-1.7L128.2,27.8z"/>
		<path class="st3" d="M137.9,15.1c0-0.4,0.1-0.7,0.4-1s0.6-0.4,1-0.4s0.7,0.1,1,0.4c0.3,0.3,0.4,0.6,0.4,1c0,0.4-0.1,0.7-0.4,1
			c-0.3,0.3-0.6,0.4-1,0.4c-0.4,0-0.7-0.1-1-0.4C138.1,15.8,137.9,15.5,137.9,15.1z M138.4,19.5h1.9v11.3h-1.9V19.5z"/>
		<path class="st3" d="M155.2,30.3c0,2.1-0.5,3.6-1.6,4.7c-1.1,1.1-2.6,1.6-4.6,1.6c-1.1,0-2.1-0.2-3-0.5c-0.9-0.3-1.7-0.9-2.5-1.7
			l1.3-1.5c0.6,0.6,1.2,1.1,1.9,1.5c0.7,0.3,1.4,0.5,2.3,0.5c0.8,0,1.5-0.1,2.1-0.4c0.6-0.2,1-0.6,1.3-1c0.3-0.4,0.5-0.9,0.7-1.5
			c0.1-0.5,0.2-1.1,0.2-1.7v-1.4h0c-0.4,0.7-1,1.3-1.8,1.6c-0.7,0.3-1.5,0.5-2.2,0.5c-0.9,0-1.7-0.1-2.4-0.4s-1.4-0.7-1.9-1.2
			c-0.5-0.5-0.9-1.1-1.2-1.8c-0.3-0.7-0.4-1.5-0.4-2.3c0-0.9,0.1-1.7,0.4-2.5c0.3-0.7,0.7-1.4,1.2-1.9c0.5-0.5,1.2-0.9,1.9-1.2
			c0.7-0.3,1.6-0.4,2.5-0.4c0.4,0,0.8,0,1.2,0.1c0.4,0.1,0.8,0.2,1.1,0.4c0.4,0.2,0.7,0.4,1,0.7c0.3,0.3,0.5,0.6,0.7,1h0v-1.9h1.9
			V30.3z M145.4,25.1c0,0.6,0.1,1.1,0.3,1.6c0.2,0.5,0.5,0.9,0.9,1.3c0.4,0.4,0.8,0.6,1.3,0.9c0.5,0.2,1,0.3,1.5,0.3
			c0.6,0,1.2-0.1,1.7-0.3c0.5-0.2,0.9-0.5,1.3-0.9c0.3-0.4,0.6-0.8,0.8-1.3c0.2-0.5,0.3-1,0.3-1.6c0-0.6-0.1-1.2-0.3-1.7
			c-0.2-0.5-0.5-0.9-0.8-1.3c-0.4-0.4-0.8-0.7-1.3-0.9c-0.5-0.2-1-0.3-1.6-0.3s-1.1,0.1-1.6,0.3c-0.5,0.2-0.9,0.5-1.3,0.9
			c-0.3,0.4-0.6,0.8-0.8,1.3C145.5,24,145.4,24.5,145.4,25.1z"/>
		<path class="st3" d="M158.7,12.6h1.9v8.5h0c0.1-0.2,0.3-0.4,0.5-0.7c0.2-0.2,0.5-0.4,0.8-0.6c0.3-0.2,0.7-0.3,1-0.4
			c0.4-0.1,0.8-0.2,1.2-0.2c0.7,0,1.4,0.1,1.9,0.3c0.5,0.2,1,0.5,1.3,0.9c0.4,0.4,0.6,0.9,0.8,1.5c0.2,0.6,0.3,1.2,0.3,1.9v7h-1.9
			V24c0-0.9-0.2-1.7-0.6-2.2c-0.4-0.5-1.1-0.8-2-0.8c-0.6,0-1.1,0.1-1.6,0.3c-0.4,0.2-0.8,0.5-1.1,0.9c-0.3,0.4-0.5,0.8-0.6,1.4
			c-0.1,0.5-0.2,1.1-0.2,1.8v5.5h-1.9V12.6z"/>
		<path class="st3" d="M178.3,21.1h-3.3v5.6c0,0.4,0,0.7,0,1c0,0.3,0.1,0.6,0.2,0.8c0.1,0.2,0.3,0.4,0.5,0.6c0.2,0.1,0.5,0.2,1,0.2
			c0.3,0,0.6,0,0.8-0.1c0.3-0.1,0.6-0.2,0.8-0.3l0.1,1.7c-0.3,0.1-0.7,0.2-1.1,0.3c-0.4,0.1-0.8,0.1-1.1,0.1c-0.7,0-1.2-0.1-1.6-0.3
			c-0.4-0.2-0.7-0.4-0.9-0.7c-0.2-0.3-0.4-0.7-0.4-1.2c-0.1-0.5-0.1-1-0.1-1.6v-6.2h-2.5v-1.6h2.5v-3.2h1.9v3.2h3.3V21.1z"/>
		<path class="st3" d="M180.8,27.8c0.4,0.5,0.8,0.8,1.2,1.1c0.4,0.3,1,0.4,1.7,0.4c0.3,0,0.6,0,0.9-0.1c0.3-0.1,0.6-0.2,0.8-0.3
			c0.2-0.1,0.4-0.3,0.6-0.5c0.1-0.2,0.2-0.5,0.2-0.8c0-0.3-0.1-0.6-0.2-0.7c-0.1-0.2-0.3-0.4-0.5-0.5c-0.2-0.1-0.5-0.2-0.8-0.3
			c-0.3-0.1-0.6-0.2-0.9-0.2c-0.5-0.1-1-0.2-1.5-0.4c-0.5-0.1-0.9-0.3-1.3-0.6c-0.4-0.2-0.7-0.5-0.9-0.9c-0.2-0.4-0.3-0.8-0.3-1.4
			c0-0.5,0.1-1,0.4-1.4c0.2-0.4,0.6-0.8,1-1c0.4-0.3,0.9-0.5,1.3-0.6c0.5-0.1,1-0.2,1.5-0.2c0.8,0,1.5,0.2,2.2,0.5
			c0.7,0.3,1.2,0.8,1.6,1.6l-1.6,1c-0.2-0.4-0.6-0.7-1-1c-0.4-0.2-0.9-0.4-1.4-0.4c-0.3,0-0.5,0-0.8,0.1c-0.3,0.1-0.5,0.2-0.7,0.3
			c-0.2,0.1-0.4,0.3-0.5,0.5c-0.1,0.2-0.2,0.4-0.2,0.7c0,0.2,0.1,0.4,0.2,0.6c0.2,0.2,0.4,0.3,0.6,0.4s0.6,0.2,0.9,0.3
			c0.3,0.1,0.7,0.2,1.1,0.2c0.5,0.1,1,0.2,1.4,0.4c0.4,0.2,0.8,0.4,1.2,0.6c0.3,0.3,0.6,0.6,0.8,1c0.2,0.4,0.3,0.9,0.3,1.4
			c0,0.6-0.1,1.2-0.4,1.6c-0.3,0.5-0.6,0.8-1,1.1c-0.4,0.3-0.9,0.5-1.4,0.6c-0.5,0.1-1.1,0.2-1.7,0.2c-1,0-1.8-0.1-2.5-0.4
			c-0.7-0.3-1.3-0.8-1.9-1.7L180.8,27.8z"/>
	</g>
</g>
</svg>
