<?xml version="1.0" encoding="utf-8"?>
<!-- Generator: Adobe Illustrator 19.1.0, SVG Export Plug-In . SVG Version: 6.00 Build 0)  -->
<svg version="1.1" id="Layer_1" xmlns="http://www.w3.org/2000/svg" xmlns:xlink="http://www.w3.org/1999/xlink" x="0px" y="0px"
	 viewBox="0 0 177 26.4" style="enable-background:new 0 0 177 26.4;" xml:space="preserve">
<style type="text/css">
	.st0{fill:#FFFFFF;}
</style>
<g>
	<g>
		<polygon class="st0" points="13.6,19.6 13.5,19.6 5.2,0 0,0 0,25.9 3.5,25.9 3.5,4.6 3.6,4.6 12.3,25.9 14.7,25.9 23.4,4.6 
			23.5,4.6 23.5,25.9 27,25.9 27,0 21.8,0 		"/>
		<path class="st0" d="M39.6,8.1c-5.2,0-9,3.9-9,9.1c0,5.2,3.4,9.1,8.9,9.1c3.3,0,5.9-1.2,7.7-3.6l-2.5-1.9
			c-1.3,1.6-2.7,2.6-4.8,2.6c-3,0-5.9-2-5.9-5.1h13.9v-1.2C48.1,12.8,45.8,8.1,39.6,8.1z M34.2,15.8c0-2.3,2.1-5.1,5.4-5.1
			c3.3,0,4.9,2.2,5,5.1H34.2z"/>
		<path class="st0" d="M65.3,11.1L65.3,11.1c-1.2-1.8-3.6-2.9-6.1-2.9c-5.3,0-8.8,3.9-8.8,9.1c0,5.1,3.4,8.7,8.8,8.7c2.3,0,6,0,6,0
			h0.1h3.3V0h-3.3V11.1z M59.5,23.3c-3.5,0-5.7-2.5-5.7-6c0-3.5,2.2-6,5.7-6c3.5,0,5.7,2.5,5.7,6C65.3,20.8,63.1,23.3,59.5,23.3z"/>
		<rect x="72.9" y="8.6" class="st0" width="3.3" height="17.4"/>
		<path class="st0" d="M87.5,8.1c-2.4,0-5.1,0.8-6.9,2.6l2,2.1c1.2-0.9,2.4-2,4.9-2c2.8,0,4.1,1.9,4.1,3.7v0.7h-2.4
			c-5.3,0-9.6,1.5-9.6,6c0,3.4,2.8,4.8,6,4.8c2.6,0,6.1,0,6.1,0h0.2h2.8c0,0,0-1.9,0-3.2v-8.9C94.7,10.9,92.6,8.1,87.5,8.1z
			 M91.6,18.7c0,2.3-1.3,5.1-4.9,5.1c-2.3,0-3.7-0.8-3.7-2.8c0-2.8,3.8-3.3,6.9-3.3h1.8V18.7z"/>
		<path class="st0" d="M136.6,8.1c-2.4,0-5.1,0.8-6.9,2.6l2,2.1c1.2-0.9,2.4-2,5-2c2.8,0,4.1,1.9,4.1,3.7v0.7h-2.4
			c-5.3,0-9.6,1.5-9.6,6c0,3.4,2.8,4.8,6,4.8c2.6,0,6.1,0,6.1,0h0.2h2.8c0,0,0-1.9,0-3.2v-8.9C143.9,10.9,141.8,8.1,136.6,8.1z
			 M140.8,18.7c0,2.3-1.3,5.1-4.9,5.1c-2.3,0-3.7-0.8-3.7-2.8c0-2.8,3.8-3.3,6.9-3.3h1.8V18.7z"/>
		<polygon class="st0" points="112.8,19.6 112.7,19.6 104.4,0 99.2,0 99.2,25.9 102.7,25.9 102.7,4.6 102.8,4.6 111.5,25.9 
			113.9,25.9 122.6,4.6 122.7,4.6 122.7,25.9 126.2,25.9 126.2,0 121,0 		"/>
		<path class="st0" d="M153.6,19.3v-7.9h4.7V8.6h-4.7V3.7h-3.3v4.9h-3.8v2.9h3.8v9.1c0,2.8,0.1,5.9,5.2,5.9c0.7,0,2.2-0.1,3-0.6v-3
			c-0.7,0.4-1.6,0.5-2.3,0.5C153.6,23.3,153.6,21.2,153.6,19.3z"/>
		<path class="st0" d="M170.7,8.1c-2.7,0-5.7,0-5.7,0L164.9,0h-3.3v25.9h3.3V17c0-4,2.1-5.8,4.8-5.8c2.1,0,4,1.2,4,4.5v10.3h3.3
			V14.8C177,10.1,174.1,8.1,170.7,8.1z"/>
		<rect x="72.9" y="2.5" class="st0" width="3.3" height="3.3"/>
	</g>
</g>
</svg>
