<svg id="Layer_1" data-name="Layer 1" xmlns="http://www.w3.org/2000/svg" viewBox="0 0 48 48"><defs><style>.cls-1{fill:#fff;}</style></defs><title>icon_insights_roadmap-01</title><path class="cls-1" d="M45.56,15.87a9.06,9.06,0,0,0-18.12,0c0,4.73,4.06,9.19,9.08,15.5C41.55,25.07,45.56,20.6,45.56,15.87Zm-20.06,0a10.86,10.86,0,0,1,2.1-6.43h-6L22,15.9H17.32l.41-6.46H9.32l-7.76,31H15.79l.57-9H23l.57,9H37.79L36.22,34.1C30.78,27.11,25.5,21.79,25.5,15.87Zm7.74,0a3.27,3.27,0,1,1,3.26,3.28A3.28,3.28,0,0,1,33.24,15.87ZM16.6,27.52l.49-7.75h5.18l.49,7.75Z"/></svg>