<svg id="Layer_1" data-name="Layer 1" xmlns="http://www.w3.org/2000/svg" viewBox="0 0 48 48"><defs><style>.cls-1{fill:#fff;}</style></defs><title>icon_insights_users</title><path class="cls-1" d="M41.59,17.95A9.35,9.35,0,0,1,28,18a8.82,8.82,0,0,0-4.84,5.67h0c3,1.31,4.78,3.72,5.63,7.86A38.92,38.92,0,0,0,46.67,30.1C46.67,23,45.15,19.52,41.59,17.95Z"/><path class="cls-1" d="M21.63,25.28A9.35,9.35,0,0,1,8,25.38C1,28.66,2.89,37.43,2.89,37.43a37.74,37.74,0,0,0,23.82,0C26.71,30.36,25.19,26.85,21.63,25.28Z"/><path class="cls-1" d="M14.79,12a6.88,6.88,0,1,0,6.88,6.88A6.87,6.87,0,0,0,14.79,12Zm1.76,4a1.3,1.3,0,1,1-1.3,1.3A1.3,1.3,0,0,1,16.56,16Zm-3.88,0a1.3,1.3,0,1,1-1.3,1.3A1.3,1.3,0,0,1,12.67,16Zm5.65,6a5.08,5.08,0,0,1-7.18,0,1,1,0,1,1,1.43-1.43,3.14,3.14,0,0,0,4.33,0,1,1,0,0,1,.71-.3h0a1,1,0,0,1,.71,1.72Z"/><path class="cls-1" d="M34.79,5a6.88,6.88,0,1,0,6.88,6.88A6.87,6.87,0,0,0,34.79,5Zm1.76,4a1.3,1.3,0,1,1-1.3,1.3A1.3,1.3,0,0,1,36.56,9ZM32.67,9a1.3,1.3,0,1,1-1.3,1.3A1.3,1.3,0,0,1,32.67,9Zm5.65,6a5.08,5.08,0,0,1-7.18,0,1,1,0,0,1,1.43-1.43,3.14,3.14,0,0,0,4.33,0,1,1,0,0,1,.71-.3h0a1,1,0,0,1,.71,1.72Z"/></svg>