<?xml version="1.0" encoding="utf-8"?>
<!-- Generator: Adobe Illustrator 19.1.0, SVG Export Plug-In . SVG Version: 6.00 Build 0)  -->
<svg version="1.1" id="Layer_1" xmlns="http://www.w3.org/2000/svg" xmlns:xlink="http://www.w3.org/1999/xlink" x="0px" y="0px"
	 viewBox="-457 153 44.8 364.5" style="enable-background:new -457 153 44.8 364.5;" xml:space="preserve">
<style type="text/css">
	.st0{fill:#FFFFFF;}
</style>
<g>
	<path id="user-icon_5_" class="st0" d="M-428.6,180.8c-4.7-1.1-9.1-2-6.9-6c6.4-12.1,1.7-18.6-5.1-18.6c-6.9,0-11.6,6.7-5.1,18.6
		c2.2,4-2.4,5-6.9,6c-4.7,1.1-4.3,3.6-4.3,8h32.7C-424.2,184.3-423.9,181.8-428.6,180.8z"/>
	<g>
		<rect x="-457" y="388" class="st0" width="10" height="21"/>
		<rect x="-444" y="379" class="st0" width="10" height="30"/>
		<rect x="-431" y="398" class="st0" width="10" height="11"/>
	</g>
	<path id="magnifier-5-icon_6_" class="st0" d="M-423.7,167.2l4.1-4.1c3.5,1.6,7.5-1,7.5-4.8c0-2.9-2.4-5.3-5.3-5.3
		c-3.9,0-6.4,4.1-4.8,7.6l-4,4C-426.4,165.8-424.9,167.3-423.7,167.2z M-421,158.3c0-1.9,1.6-3.5,3.5-3.5s3.5,1.6,3.5,3.5
		c0,1.9-1.6,3.5-3.5,3.5S-421,160.2-421,158.3z"/>
	<g>
		<path class="st0" d="M-455.6,279c0,0-0.3,6.1,9.3,15.5c9.6,9.4,10.7,13.5,10.1,15.5h7c0,0,0.6-10.6-10.2-18.2
			c0,0-7.4-6.4-8.6-11.7c0,0-3.7,0.1-6.2-2C-454.2,278.2-455.6,277.4-455.6,279z"/>
		<g>
			<path class="st0" d="M-440.8,293.9c1.9,1.4,3.5,2.8,4.7,4.3c0.9-1,2-2,3.1-3.2c9.6-9.4,9.3-16,9.3-16c0-1.6-1.4-0.7-1.4-0.7
				c-2.5,2-6.2,2.1-6.2,2.1c-1.2,5.2-8.6,11.9-8.6,11.9c-0.5,0.4-1,0.7-1.4,1.1C-441,293.7-440.8,293.9-440.8,293.9z"/>
			<path class="st0" d="M-440.9,304c-1.2-1.6-2.9-3.5-5.1-5.7c-4.4,6.4-4,12.7-4,12.7h7C-443.4,309-443.1,307.4-440.9,304z"/>
		</g>
		<path class="st0" d="M-443.2,281h6.9c0,0,0.9-0.2,0.7,1c-0.3,1.7-4,5.1-4,5.1s-2.7-2.5-3.9-4.9C-443.6,282.3-444,281-443.2,281z"
			/>
		<circle class="st0" cx="-430.6" cy="273.8" r="3"/>
		<circle class="st0" cx="-448.3" cy="273.8" r="3"/>
		<circle class="st0" cx="-439.3" cy="271.3" r="3"/>
	</g>
</g>
<g>
	<path class="st0" d="M-435.1,490.5c0.2-0.1,0.4-0.3,0.6-0.4c0.9-0.6,1.8-1,2.9-1.3c0.8-0.2,1.6-0.2,2.5-0.2
		c1.1,0.1,2.2,0.4,3.3,0.8c1,0.4,2.1,0.7,3.1,1.1c1,0.4,2.1,0.7,3.2,0.9c1,0.2,1.9,0.3,2.9,0.2c0,0,0.1,0,0.1,0
		c0.1,0,0.2,0.1,0.2,0.2c0,0,0,0.1,0,0.1c-0.1,2.5-0.1,4.9,0,7.4c0,1,0,2,0.1,3c0,1.3,0.1,2.6,0.2,3.8c0,0.9,0.1,1.8,0.1,2.7
		c0.1,1.1,0.1,2.3,0.2,3.4c0,0.6,0.1,1.2,0.1,1.8c0,0.4,0,0.8,0,1.3c0,0.2,0,0.3-0.3,0.2c-0.9-0.1-1.8-0.2-2.7-0.2
		c-0.9-0.1-1.7-0.1-2.6-0.2c-1.1-0.1-2.1-0.1-3.2-0.2c-0.8,0-1.6-0.1-2.4-0.1c-2.1-0.1-4.3-0.1-6.4-0.1c-2.2,0-4.4,0-6.7,0.1
		c-1.5,0-2.9,0.1-4.4,0.2c-1,0-2,0.1-3,0.2c-1.1,0.1-2.2,0.2-3.3,0.2c-0.8,0.1-1.6,0.1-2.4,0.2c-0.2,0-0.3,0-0.3-0.2
		c0-1.8,0-3.6,0.1-5.4c0-3.4,0.1-6.9,0-10.3c0-1.1,0-2.2-0.1-3.2c-0.1-1.3-0.1-2.5-0.2-3.8c0-0.1,0-0.2,0-0.4c0-0.2,0-0.2,0.2-0.2
		c0.1,0,0.3,0,0.4,0c2.2,0,4.3-0.4,6.4-1.2c0.9-0.4,1.8-0.8,2.7-1.2c0.6-0.3,1.2-0.6,1.9-0.8c0.6-0.2,1.2-0.3,1.9-0.3
		c0.8,0,1.5,0.2,2.2,0.5c0.9,0.4,1.7,0.9,2.5,1.4C-435.2,490.4-435.2,490.4-435.1,490.5C-435.1,490.5-435.1,490.5-435.1,490.5z
		 M-435.9,510.2c0-0.1,0-0.1,0-0.2c0-3.7,0.1-6.4,0.1-10c0-2.6,0-4.2,0.1-6.8c0-0.1,0-0.2-0.1-0.3c-0.3-0.3-0.5-0.6-0.8-0.8
		c-0.5-0.4-1-0.8-1.5-1c-0.9-0.4-1.9-0.5-2.8-0.2c-0.7,0.2-1.4,0.4-2.1,0.7c-0.9,0.4-1.7,0.8-2.6,1.1c-2,0.8-3,1.4-5.1,1.6
		c-0.1,0-0.2,0-0.3,0c0,0.3-0.1,18.2,0,18.4c0.4,0-0.2-0.1,0.1-0.1c0.9-0.1,1.7-0.4,2.6-0.7c1.1-0.4,2.3-0.8,3.4-1.3
		c1.1-0.4,2.1-0.8,3.3-1.1c1-0.2,1.9-0.4,2.9-0.3c1,0.1,2,0.4,2.8,1C-436,510.1-436,510.2-435.9,510.2z M-418.8,494
		c-0.1,0-0.1,0-0.1,0c-1-0.1-0.9-0.2-1.9-0.4c-1.2-0.3-2.3-0.7-3.5-1.1c-0.9-0.4-1.8-0.8-2.7-1.2c-0.7-0.3-1.3-0.5-2-0.7
		c-0.6-0.1-1.2-0.2-1.8-0.1c-0.7,0.1-1.3,0.4-1.9,0.8c-0.6,0.4-1,0.9-1.5,1.4c-0.1,0.1-0.1,0.2-0.1,0.4c0,4,0.1,7.1,0.1,11.2
		c0,2.2,0,3.4,0,5.6c0,0.1,0,0.1,0,0.2c0.1,0,0.1,0,0.1-0.1c1.1-0.7,2.3-1,3.6-1c0.7,0,1.5,0.1,2.2,0.3c1,0.2,2,0.6,3,1
		c1.1,0.4,2.2,0.8,3.4,1.3c1.2,0.4,2.4,0.8,3.6,0.9c0.1,0-0.7,0-0.5,0C-418.8,505.6-418.8,500.7-418.8,494z"/>
</g>
</svg>
