<svg id="Layer_1" data-name="Layer 1" xmlns="http://www.w3.org/2000/svg" viewBox="0 0 48 48"><defs><style>.cls-1{fill:#fff;}</style></defs><title>icon_insights_marketInsights</title><path class="cls-1" d="M20.74,27.43a5,5,0,0,0,2.46.67,4.59,4.59,0,0,0,2.46-.67,9.82,9.82,0,1,0,16.57-8.31c-.27-.22-.49-.45-.76-.67h0l-3.71-3.14a9.63,9.63,0,0,0-5-1.8l.18.18L30.75,11.4h0a3.49,3.49,0,0,0-2.37-.94A3.63,3.63,0,0,0,25,13a3.57,3.57,0,0,0-1.56-.49h-.27a3.29,3.29,0,0,0-1.74.49,3.5,3.5,0,0,0-5.72-1.48h0l-2.23,2.29.18-.18a9.63,9.63,0,0,0-5,1.8L5,18.54H5c-.27.22-.54.45-.76.67a9.89,9.89,0,0,0,6.83,17A10,10,0,0,0,20.74,27.43Zm13.18-7.77.85-.13c.22,0,.4,0,.63,0a6.78,6.78,0,1,1-1.47.18ZM23.2,20.92A2.2,2.2,0,1,1,21,23.12,2.2,2.2,0,0,1,23.2,20.92ZM11,33a6.74,6.74,0,0,1,0-13.47,2.93,2.93,0,0,1,.63,0l.85.13A6.73,6.73,0,0,1,11,33Z"/><path class="cls-1" d="M12.19,29.4a4.38,4.38,0,0,1-2.88-7.7,4.57,4.57,0,1,0,5.63,6.71A4.36,4.36,0,0,1,12.19,29.4Z"/><path class="cls-1" d="M36.94,29.4a4.38,4.38,0,0,1-2.88-7.7,4.57,4.57,0,1,0,5.63,6.71A4.36,4.36,0,0,1,36.94,29.4Z"/></svg>